<?xml version="1.0" encoding="utf-8"?>
<svg xmlns="http://www.w3.org/2000/svg" xmlns:xlink="http://www.w3.org/1999/xlink" width="450" height="300" viewBox="0 0 1800 1200">
<defs>
  <clipPath id="clip390">
    <rect x="0" y="0" width="1800" height="1200"/>
  </clipPath>
</defs>
<path clip-path="url(#clip390)" d="M0 1200 L1800 1200 L1800 0 L0 0  Z" fill="#ffffff" fill-rule="evenodd" fill-opacity="1"/>
<defs>
  <clipPath id="clip391">
    <rect x="360" y="0" width="1261" height="1200"/>
  </clipPath>
</defs>
<path clip-path="url(#clip390)" d="M254.635 1027.18 L1752.76 1027.18 L1752.76 47.2441 L254.635 47.2441  Z" fill="#ffffff" fill-rule="evenodd" fill-opacity="1"/>
<defs>
  <clipPath id="clip392">
    <rect x="254" y="47" width="1499" height="981"/>
  </clipPath>
</defs>
<polyline clip-path="url(#clip392)" style="stroke:#000000; stroke-linecap:round; stroke-linejoin:round; stroke-width:2; stroke-opacity:0.1; fill:none" points="1752.76,1027.18 1752.76,47.2441 "/>
<polyline clip-path="url(#clip392)" style="stroke:#000000; stroke-linecap:round; stroke-linejoin:round; stroke-width:2; stroke-opacity:0.1; fill:none" points="1378.23,1027.18 1378.23,47.2441 "/>
<polyline clip-path="url(#clip392)" style="stroke:#000000; stroke-linecap:round; stroke-linejoin:round; stroke-width:2; stroke-opacity:0.1; fill:none" points="1003.7,1027.18 1003.7,47.2441 "/>
<polyline clip-path="url(#clip392)" style="stroke:#000000; stroke-linecap:round; stroke-linejoin:round; stroke-width:2; stroke-opacity:0.1; fill:none" points="629.165,1027.18 629.165,47.2441 "/>
<polyline clip-path="url(#clip392)" style="stroke:#000000; stroke-linecap:round; stroke-linejoin:round; stroke-width:2; stroke-opacity:0.1; fill:none" points="254.635,1027.18 254.635,47.2441 "/>
<polyline clip-path="url(#clip390)" style="stroke:#000000; stroke-linecap:round; stroke-linejoin:round; stroke-width:4; stroke-opacity:1; fill:none" points="1752.76,1027.18 254.635,1027.18 "/>
<polyline clip-path="url(#clip390)" style="stroke:#000000; stroke-linecap:round; stroke-linejoin:round; stroke-width:4; stroke-opacity:1; fill:none" points="1752.76,47.2441 254.635,47.2441 "/>
<polyline clip-path="url(#clip390)" style="stroke:#000000; stroke-linecap:round; stroke-linejoin:round; stroke-width:4; stroke-opacity:1; fill:none" points="1752.76,1027.18 1752.76,1008.28 "/>
<polyline clip-path="url(#clip390)" style="stroke:#000000; stroke-linecap:round; stroke-linejoin:round; stroke-width:4; stroke-opacity:1; fill:none" points="1378.23,1027.18 1378.23,1008.28 "/>
<polyline clip-path="url(#clip390)" style="stroke:#000000; stroke-linecap:round; stroke-linejoin:round; stroke-width:4; stroke-opacity:1; fill:none" points="1003.7,1027.18 1003.7,1008.28 "/>
<polyline clip-path="url(#clip390)" style="stroke:#000000; stroke-linecap:round; stroke-linejoin:round; stroke-width:4; stroke-opacity:1; fill:none" points="629.165,1027.18 629.165,1008.28 "/>
<polyline clip-path="url(#clip390)" style="stroke:#000000; stroke-linecap:round; stroke-linejoin:round; stroke-width:4; stroke-opacity:1; fill:none" points="254.635,1027.18 254.635,1008.28 "/>
<path clip-path="url(#clip390)" d="M1742.11 1068.6 Q1742.11 1061.16 1743.99 1057.11 Q1746.6 1051.08 1752.78 1051.08 Q1754.09 1051.08 1755.45 1051.46 Q1756.83 1051.8 1758.56 1053.16 Q1760.32 1054.52 1761.38 1056.74 Q1763.4 1061.04 1763.4 1068.6 Q1763.4 1075.99 1761.53 1080.01 Q1758.78 1085.89 1752.73 1085.89 Q1750.46 1085.89 1748.14 1084.73 Q1745.84 1083.57 1744.38 1080.78 Q1742.11 1076.6 1742.11 1068.6 M1746.31 1067.98 Q1746.31 1075.61 1746.85 1078.65 Q1747.47 1081.94 1749.15 1083.37 Q1750.85 1084.78 1752.73 1084.78 Q1754.76 1084.78 1756.44 1083.27 Q1758.14 1081.74 1758.66 1078.46 Q1759.23 1075.22 1759.2 1067.98 Q1759.2 1060.94 1758.71 1058.12 Q1758.04 1054.84 1756.26 1053.53 Q1754.51 1052.2 1752.73 1052.2 Q1752.06 1052.2 1751.35 1052.39 Q1750.66 1052.59 1749.64 1053.16 Q1748.63 1053.73 1747.84 1055.14 Q1747.07 1056.54 1746.7 1058.67 Q1746.31 1061.41 1746.31 1067.98 Z" fill="#000000" fill-rule="nonzero" fill-opacity="1" /><path clip-path="url(#clip390)" d="M1356.19 1055.9 L1356.19 1054.32 Q1362.27 1054.32 1365.4 1051.08 Q1366.27 1051.08 1366.42 1051.28 Q1366.57 1051.48 1366.57 1052.39 L1366.57 1080.78 Q1366.57 1082.28 1367.31 1082.75 Q1368.05 1083.22 1371.28 1083.22 L1372.89 1083.22 L1372.89 1084.78 Q1371.11 1084.63 1364.69 1084.63 Q1358.27 1084.63 1356.51 1084.78 L1356.51 1083.22 L1358.12 1083.22 Q1361.3 1083.22 1362.07 1082.78 Q1362.84 1082.31 1362.84 1080.78 L1362.84 1054.57 Q1360.19 1055.9 1356.19 1055.9 Z" fill="#000000" fill-rule="nonzero" fill-opacity="1" /><path clip-path="url(#clip390)" d="M1378.97 1068.6 Q1378.97 1061.16 1380.84 1057.11 Q1383.46 1051.08 1389.64 1051.08 Q1390.95 1051.08 1392.31 1051.46 Q1393.69 1051.8 1395.42 1053.16 Q1397.17 1054.52 1398.24 1056.74 Q1400.26 1061.04 1400.26 1068.6 Q1400.26 1075.99 1398.38 1080.01 Q1395.64 1085.89 1389.59 1085.89 Q1387.32 1085.89 1384.99 1084.73 Q1382.7 1083.57 1381.24 1080.78 Q1378.97 1076.6 1378.97 1068.6 M1383.17 1067.98 Q1383.17 1075.61 1383.71 1078.65 Q1384.33 1081.94 1386.01 1083.37 Q1387.71 1084.78 1389.59 1084.78 Q1391.61 1084.78 1393.29 1083.27 Q1395 1081.74 1395.52 1078.46 Q1396.09 1075.22 1396.06 1067.98 Q1396.06 1060.94 1395.57 1058.12 Q1394.9 1054.84 1393.12 1053.53 Q1391.37 1052.2 1389.59 1052.2 Q1388.92 1052.2 1388.21 1052.39 Q1387.51 1052.59 1386.5 1053.16 Q1385.49 1053.73 1384.7 1055.14 Q1383.93 1056.54 1383.56 1058.67 Q1383.17 1061.41 1383.17 1067.98 Z" fill="#000000" fill-rule="nonzero" fill-opacity="1" /><path clip-path="url(#clip390)" d="M980.672 1084.78 Q980.672 1083.87 980.746 1083.59 Q980.845 1083.32 981.24 1082.9 L990.948 1072.08 Q996.26 1066.1 996.26 1060.89 Q996.26 1057.51 994.481 1055.09 Q992.727 1052.67 989.491 1052.67 Q987.268 1052.67 985.39 1054.02 Q983.513 1055.38 982.648 1057.8 Q982.796 1057.75 983.315 1057.75 Q984.575 1057.75 985.267 1058.54 Q985.983 1059.34 985.983 1060.4 Q985.983 1061.76 985.094 1062.42 Q984.229 1063.07 983.364 1063.07 Q983.019 1063.07 982.549 1062.99 Q982.105 1062.92 981.388 1062.23 Q980.672 1061.51 980.672 1060.25 Q980.672 1056.72 983.34 1053.9 Q986.032 1051.08 990.133 1051.08 Q994.777 1051.08 997.816 1053.85 Q1000.88 1056.59 1000.88 1060.89 Q1000.88 1062.4 1000.41 1063.78 Q999.965 1065.14 999.348 1066.2 Q998.755 1067.27 997.124 1068.97 Q995.494 1070.67 994.185 1071.88 Q992.875 1073.1 989.936 1075.66 L984.575 1080.88 L993.69 1080.88 Q998.137 1080.88 998.483 1080.48 Q998.977 1079.77 999.595 1075.99 L1000.88 1075.99 L999.446 1084.78 L980.672 1084.78 Z" fill="#000000" fill-rule="nonzero" fill-opacity="1" /><path clip-path="url(#clip390)" d="M1005.42 1068.6 Q1005.42 1061.16 1007.3 1057.11 Q1009.92 1051.08 1016.1 1051.08 Q1017.41 1051.08 1018.76 1051.46 Q1020.15 1051.8 1021.88 1053.16 Q1023.63 1054.52 1024.69 1056.74 Q1026.72 1061.04 1026.72 1068.6 Q1026.72 1075.99 1024.84 1080.01 Q1022.1 1085.89 1016.05 1085.89 Q1013.77 1085.89 1011.45 1084.73 Q1009.15 1083.57 1007.7 1080.78 Q1005.42 1076.6 1005.42 1068.6 M1009.62 1067.98 Q1009.62 1075.61 1010.17 1078.65 Q1010.79 1081.94 1012.47 1083.37 Q1014.17 1084.78 1016.05 1084.78 Q1018.07 1084.78 1019.75 1083.27 Q1021.46 1081.74 1021.98 1078.46 Q1022.54 1075.22 1022.52 1067.98 Q1022.52 1060.94 1022.03 1058.12 Q1021.36 1054.84 1019.58 1053.53 Q1017.83 1052.2 1016.05 1052.2 Q1015.38 1052.2 1014.66 1052.39 Q1013.97 1052.59 1012.96 1053.16 Q1011.95 1053.73 1011.16 1055.14 Q1010.39 1056.54 1010.02 1058.67 Q1009.62 1061.41 1009.62 1067.98 Z" fill="#000000" fill-rule="nonzero" fill-opacity="1" /><path clip-path="url(#clip390)" d="M605.944 1077.96 Q605.944 1076.45 606.809 1075.74 Q607.673 1075.02 608.785 1075.02 Q609.946 1075.02 610.761 1075.79 Q611.601 1076.53 611.601 1077.84 Q611.601 1079.25 610.613 1080.04 Q609.649 1080.83 608.266 1080.63 Q609.476 1082.66 611.7 1083.57 Q613.948 1084.48 616.023 1084.48 Q618.197 1084.48 619.951 1082.61 Q621.729 1080.73 621.729 1076.13 Q621.729 1072.23 620.198 1069.98 Q618.691 1067.73 615.702 1067.73 L613.478 1067.73 Q612.713 1067.73 612.49 1067.66 Q612.268 1067.59 612.268 1067.17 Q612.268 1066.67 613.034 1066.57 Q613.8 1066.57 615.01 1066.43 Q617.95 1066.33 619.506 1063.78 Q620.914 1061.41 620.914 1058.03 Q620.914 1054.94 619.432 1053.65 Q617.974 1052.34 616.072 1052.34 Q614.294 1052.34 612.342 1053.09 Q610.39 1053.83 609.328 1055.48 Q612.466 1055.48 612.466 1058.03 Q612.466 1059.14 611.749 1059.88 Q611.057 1060.6 609.896 1060.6 Q608.785 1060.6 608.044 1059.9 Q607.303 1059.19 607.303 1057.98 Q607.303 1055.09 609.872 1053.09 Q612.466 1051.08 616.27 1051.08 Q620.025 1051.08 622.792 1053.06 Q625.583 1055.04 625.583 1058.08 Q625.583 1061.06 623.607 1063.51 Q621.631 1065.96 618.493 1066.97 Q622.347 1067.73 624.644 1070.35 Q626.942 1072.95 626.942 1076.13 Q626.942 1080.09 623.829 1083 Q620.717 1085.89 616.171 1085.89 Q611.972 1085.89 608.958 1083.62 Q605.944 1081.35 605.944 1077.96 Z" fill="#000000" fill-rule="nonzero" fill-opacity="1" /><path clip-path="url(#clip390)" d="M631.092 1068.6 Q631.092 1061.16 632.969 1057.11 Q635.588 1051.08 641.764 1051.08 Q643.073 1051.08 644.432 1051.46 Q645.815 1051.8 647.544 1053.16 Q649.298 1054.52 650.361 1056.74 Q652.386 1061.04 652.386 1068.6 Q652.386 1075.99 650.509 1080.01 Q647.767 1085.89 641.714 1085.89 Q639.442 1085.89 637.12 1084.73 Q634.822 1083.57 633.365 1080.78 Q631.092 1076.6 631.092 1068.6 M635.291 1067.98 Q635.291 1075.61 635.835 1078.65 Q636.453 1081.94 638.132 1083.37 Q639.837 1084.78 641.714 1084.78 Q643.74 1084.78 645.42 1083.27 Q647.124 1081.74 647.643 1078.46 Q648.211 1075.22 648.187 1067.98 Q648.187 1060.94 647.693 1058.12 Q647.026 1054.84 645.247 1053.53 Q643.493 1052.2 641.714 1052.2 Q641.047 1052.2 640.331 1052.39 Q639.639 1052.59 638.626 1053.16 Q637.614 1053.73 636.823 1055.14 Q636.057 1056.54 635.687 1058.67 Q635.291 1061.41 635.291 1067.98 Z" fill="#000000" fill-rule="nonzero" fill-opacity="1" /><path clip-path="url(#clip390)" d="M231.055 1076.43 L231.055 1074.87 L246.594 1051.13 Q246.989 1050.52 247.607 1050.54 Q248.175 1050.54 248.298 1050.76 Q248.422 1050.99 248.422 1051.85 L248.422 1074.87 L253.486 1074.87 L253.486 1076.43 L248.422 1076.43 L248.422 1080.83 Q248.422 1082.28 249.015 1082.75 Q249.632 1083.22 252.251 1083.22 L253.313 1083.22 L253.313 1084.78 Q251.238 1084.63 246.446 1084.63 Q241.678 1084.63 239.603 1084.78 L239.603 1083.22 L240.665 1083.22 Q243.284 1083.22 243.901 1082.78 Q244.519 1082.31 244.519 1080.83 L244.519 1076.43 L231.055 1076.43 M232.488 1074.87 L244.815 1074.87 L244.815 1056 L232.488 1074.87 Z" fill="#000000" fill-rule="nonzero" fill-opacity="1" /><path clip-path="url(#clip390)" d="M256.92 1068.6 Q256.92 1061.16 258.797 1057.11 Q261.416 1051.08 267.592 1051.08 Q268.901 1051.08 270.26 1051.46 Q271.643 1051.8 273.372 1053.16 Q275.126 1054.52 276.188 1056.74 Q278.214 1061.04 278.214 1068.6 Q278.214 1075.99 276.337 1080.01 Q273.595 1085.89 267.542 1085.89 Q265.27 1085.89 262.947 1084.73 Q260.65 1083.57 259.193 1080.78 Q256.92 1076.6 256.92 1068.6 M261.119 1067.98 Q261.119 1075.61 261.663 1078.65 Q262.28 1081.94 263.96 1083.37 Q265.665 1084.78 267.542 1084.78 Q269.568 1084.78 271.248 1083.27 Q272.952 1081.74 273.471 1078.46 Q274.039 1075.22 274.015 1067.98 Q274.015 1060.94 273.52 1058.12 Q272.853 1054.84 271.075 1053.53 Q269.321 1052.2 267.542 1052.2 Q266.875 1052.2 266.159 1052.39 Q265.467 1052.59 264.454 1053.16 Q263.442 1053.73 262.651 1055.14 Q261.885 1056.54 261.515 1058.67 Q261.119 1061.41 261.119 1067.98 Z" fill="#000000" fill-rule="nonzero" fill-opacity="1" /><path clip-path="url(#clip390)" d="M589 1120.39 L589 1118.87 Q592.193 1118.73 594.299 1116.49 Q596.439 1114.21 597.152 1111.43 Q597.899 1108.64 597.967 1105.41 L599.7 1105.41 L599.7 1118.22 L609.652 1118.22 L609.652 1120.39 L599.7 1120.39 L599.7 1139.72 Q599.7 1147.23 604.387 1147.23 Q606.391 1147.23 607.716 1145.19 Q609.041 1143.12 609.041 1139.45 L609.041 1135.61 L610.773 1135.61 L610.773 1139.59 Q610.773 1143.36 609.041 1146.18 Q607.308 1148.99 603.878 1148.99 Q602.621 1148.99 601.364 1148.66 Q600.141 1148.35 598.511 1147.53 Q596.914 1146.68 595.895 1144.65 Q594.91 1142.57 594.91 1139.59 L594.91 1120.39 L589 1120.39 Z" fill="#000000" fill-rule="nonzero" fill-opacity="1" /><path clip-path="url(#clip390)" d="M616.955 1148.21 L616.955 1146.07 Q620.657 1146.07 621.507 1145.63 Q622.356 1145.16 622.356 1142.91 L622.356 1124.2 Q622.356 1121.62 621.473 1121.01 Q620.623 1120.39 617.227 1120.39 L617.227 1118.22 L626.941 1117.47 L626.941 1142.98 Q626.941 1145.05 627.689 1145.56 Q628.436 1146.07 631.833 1146.07 L631.833 1148.21 Q624.733 1148.01 624.598 1148.01 Q623.647 1148.01 616.955 1148.21 M619.876 1105.35 Q619.876 1103.95 620.929 1102.83 Q622.016 1101.68 623.545 1101.68 Q625.073 1101.68 626.16 1102.73 Q627.247 1103.75 627.247 1105.38 Q627.247 1106.98 626.16 1108.03 Q625.073 1109.05 623.545 1109.05 Q621.948 1109.05 620.895 1107.93 Q619.876 1106.81 619.876 1105.35 Z" fill="#000000" fill-rule="nonzero" fill-opacity="1" /><path clip-path="url(#clip390)" d="M636.146 1148.21 L636.146 1146.07 Q639.849 1146.07 640.698 1145.63 Q641.547 1145.16 641.547 1142.91 L641.547 1124.27 Q641.547 1121.69 640.63 1121.04 Q639.747 1120.39 636.146 1120.39 L636.146 1118.22 L645.929 1117.47 L645.929 1124.78 Q649.19 1117.47 656.221 1117.47 Q664.373 1117.47 665.494 1124.27 Q666.683 1121.62 669.162 1119.55 Q671.676 1117.47 675.582 1117.47 Q680.813 1117.47 682.885 1120.05 Q684.414 1121.79 684.719 1123.72 Q685.025 1125.66 685.025 1130.69 L685.025 1143.97 Q685.093 1145.43 686.214 1145.77 Q687.335 1146.07 690.46 1146.07 L690.46 1148.21 Q683.361 1148.01 682.681 1148.01 Q682.138 1148.01 674.801 1148.21 L674.801 1146.07 Q678.503 1146.07 679.353 1145.63 Q680.236 1145.16 680.236 1142.91 L680.236 1126.71 Q680.236 1123.18 679.149 1121.11 Q678.062 1119 675.073 1119 Q671.472 1119 668.585 1122.02 Q665.698 1125.05 665.698 1130.14 L665.698 1142.91 Q665.698 1145.16 666.547 1145.63 Q667.43 1146.07 671.133 1146.07 L671.133 1148.21 Q664.033 1148.01 663.32 1148.01 Q662.777 1148.01 655.474 1148.21 L655.474 1146.07 Q659.176 1146.07 660.025 1145.63 Q660.908 1145.16 660.908 1142.91 L660.908 1126.71 Q660.908 1123.18 659.821 1121.11 Q658.735 1119 655.745 1119 Q652.145 1119 649.258 1122.02 Q646.371 1125.05 646.371 1130.14 L646.371 1142.91 Q646.371 1145.16 647.22 1145.63 Q648.103 1146.07 651.771 1146.07 L651.771 1148.21 Q644.672 1148.01 643.993 1148.01 Q643.449 1148.01 636.146 1148.21 Z" fill="#000000" fill-rule="nonzero" fill-opacity="1" /><path clip-path="url(#clip390)" d="M693.755 1132.89 Q693.755 1126.34 697.967 1121.69 Q702.178 1117.03 708.225 1117.03 Q714.339 1117.03 717.498 1121.01 Q720.691 1124.98 720.691 1130.69 Q720.691 1131.74 720.419 1131.94 Q720.147 1132.15 718.958 1132.15 L699.529 1132.15 Q699.529 1139.25 701.635 1142.57 Q704.556 1147.23 709.481 1147.23 Q710.161 1147.23 710.976 1147.09 Q711.791 1146.96 713.456 1146.38 Q715.12 1145.77 716.581 1144.17 Q718.041 1142.57 718.89 1140.06 Q719.094 1139.08 719.773 1139.11 Q720.691 1139.11 720.691 1139.93 Q720.691 1140.54 720.011 1141.93 Q719.366 1143.29 718.109 1144.92 Q716.852 1146.55 714.407 1147.77 Q711.995 1148.99 709.074 1148.99 Q702.96 1148.99 698.34 1144.38 Q693.755 1139.72 693.755 1132.89 M699.597 1130.69 L716.105 1130.69 Q716.105 1129.23 715.833 1127.6 Q715.595 1125.97 714.848 1123.72 Q714.135 1121.45 712.437 1120.02 Q710.738 1118.59 708.225 1118.59 Q707.104 1118.59 705.881 1119.07 Q704.692 1119.55 703.231 1120.7 Q701.771 1121.85 700.752 1124.47 Q699.733 1127.09 699.597 1130.69 Z" fill="#000000" fill-rule="nonzero" fill-opacity="1" /><path clip-path="url(#clip390)" d="M747.151 1120.39 L747.151 1118.87 Q750.344 1118.73 752.45 1116.49 Q754.59 1114.21 755.303 1111.43 Q756.05 1108.64 756.118 1105.41 L757.851 1105.41 L757.851 1118.22 L767.803 1118.22 L767.803 1120.39 L757.851 1120.39 L757.851 1139.72 Q757.851 1147.23 762.538 1147.23 Q764.542 1147.23 765.867 1145.19 Q767.192 1143.12 767.192 1139.45 L767.192 1135.61 L768.924 1135.61 L768.924 1139.59 Q768.924 1143.36 767.192 1146.18 Q765.459 1148.99 762.029 1148.99 Q760.772 1148.99 759.515 1148.66 Q758.292 1148.35 756.662 1147.53 Q755.065 1146.68 754.046 1144.65 Q753.061 1142.57 753.061 1139.59 L753.061 1120.39 L747.151 1120.39 Z" fill="#000000" fill-rule="nonzero" fill-opacity="1" /><path clip-path="url(#clip390)" d="M779.318 1144.48 Q774.732 1139.93 774.732 1133.34 Q774.732 1126.71 779.216 1121.89 Q783.734 1117.03 790.187 1117.03 Q796.505 1117.03 801.023 1121.85 Q805.574 1126.64 805.574 1133.34 Q805.574 1139.89 800.989 1144.44 Q796.437 1148.99 790.119 1148.99 Q783.937 1148.99 779.318 1144.48 M780.507 1132.76 Q780.507 1139.52 782.273 1142.57 Q784.99 1147.23 790.187 1147.23 Q792.769 1147.23 794.909 1145.84 Q797.083 1144.44 798.271 1142.1 Q799.8 1139.04 799.8 1132.76 Q799.8 1126.07 797.966 1123.11 Q795.248 1118.59 790.119 1118.59 Q787.878 1118.59 785.67 1119.78 Q783.496 1120.94 782.171 1123.25 Q780.507 1126.3 780.507 1132.76 Z" fill="#000000" fill-rule="nonzero" fill-opacity="1" /><path clip-path="url(#clip390)" d="M837.503 1144.41 Q833.088 1139.79 833.088 1133.2 Q833.088 1126.58 837.436 1121.82 Q841.783 1117.03 848.169 1117.03 Q852.415 1117.03 855.608 1119.07 Q858.801 1121.07 858.801 1124.5 Q858.801 1126.03 857.884 1126.92 Q857.001 1127.77 855.608 1127.77 Q854.147 1127.77 853.264 1126.88 Q852.415 1125.97 852.415 1124.57 Q852.415 1123.96 852.619 1123.35 Q852.823 1122.74 853.57 1122.09 Q854.351 1121.45 855.676 1121.35 Q853.196 1118.8 848.373 1118.8 Q848.305 1118.8 848.237 1118.8 Q844.705 1118.8 841.783 1122.13 Q838.862 1125.46 838.862 1133.06 Q838.862 1137.04 839.813 1139.96 Q840.798 1142.85 842.395 1144.34 Q843.991 1145.84 845.554 1146.55 Q847.116 1147.23 848.645 1147.23 Q855.472 1147.23 857.782 1139.93 Q857.986 1139.25 858.665 1139.25 Q859.582 1139.25 859.582 1139.93 Q859.582 1140.27 859.31 1141.15 Q859.039 1142.03 858.189 1143.42 Q857.34 1144.82 856.117 1146.04 Q854.929 1147.23 852.789 1148.11 Q850.683 1148.99 848.033 1148.99 Q841.919 1148.99 837.503 1144.41 Z" fill="#000000" fill-rule="nonzero" fill-opacity="1" /><path clip-path="url(#clip390)" d="M863.896 1148.21 L863.896 1146.07 Q867.598 1146.07 868.448 1145.63 Q869.297 1145.16 869.297 1142.91 L869.297 1106.74 Q869.297 1104.16 868.38 1103.51 Q867.496 1102.87 863.896 1102.87 L863.896 1100.69 L873.882 1099.95 L873.882 1142.91 Q873.882 1145.16 874.765 1145.63 Q875.649 1146.07 879.317 1146.07 L879.317 1148.21 Q878.468 1148.21 876.702 1148.15 Q874.935 1148.08 873.645 1148.04 Q872.354 1148.01 871.606 1148.01 Q870.791 1148.01 863.896 1148.21 Z" fill="#000000" fill-rule="nonzero" fill-opacity="1" /><path clip-path="url(#clip390)" d="M887.367 1144.48 Q882.782 1139.93 882.782 1133.34 Q882.782 1126.71 887.265 1121.89 Q891.783 1117.03 898.237 1117.03 Q904.555 1117.03 909.072 1121.85 Q913.624 1126.64 913.624 1133.34 Q913.624 1139.89 909.038 1144.44 Q904.487 1148.99 898.169 1148.99 Q891.987 1148.99 887.367 1144.48 M888.556 1132.76 Q888.556 1139.52 890.322 1142.57 Q893.04 1147.23 898.237 1147.23 Q900.818 1147.23 902.958 1145.84 Q905.132 1144.44 906.321 1142.1 Q907.849 1139.04 907.849 1132.76 Q907.849 1126.07 906.015 1123.11 Q903.298 1118.59 898.169 1118.59 Q895.927 1118.59 893.719 1119.78 Q891.545 1120.94 890.22 1123.25 Q888.556 1126.3 888.556 1132.76 Z" fill="#000000" fill-rule="nonzero" fill-opacity="1" /><path clip-path="url(#clip390)" d="M917.938 1147.3 L917.938 1138.13 Q917.938 1137.34 917.972 1137.07 Q918.006 1136.8 918.209 1136.6 Q918.413 1136.39 918.821 1136.39 Q919.296 1136.39 919.466 1136.6 Q919.67 1136.8 919.806 1137.58 Q920.859 1142.37 923.101 1144.92 Q925.376 1147.43 929.486 1147.43 Q933.393 1147.43 935.363 1145.7 Q937.333 1143.97 937.333 1141.11 Q937.333 1136.02 930.098 1134.73 Q925.92 1133.88 924.188 1133.34 Q922.455 1132.76 920.927 1131.5 Q917.938 1129.06 917.938 1125.59 Q917.938 1122.13 920.553 1119.58 Q923.203 1117.03 929.045 1117.03 Q932.951 1117.03 935.601 1119 Q936.382 1118.39 936.789 1117.88 Q937.706 1117.03 938.182 1117.03 Q938.726 1117.03 938.827 1117.41 Q938.929 1117.74 938.929 1118.73 L938.929 1125.73 Q938.929 1126.51 938.895 1126.78 Q938.861 1127.05 938.658 1127.26 Q938.454 1127.43 938.012 1127.43 Q937.231 1127.43 937.197 1126.78 Q936.654 1118.36 929.045 1118.36 Q924.935 1118.36 923.101 1119.95 Q921.266 1121.52 921.266 1123.66 Q921.266 1124.84 921.81 1125.76 Q922.387 1126.64 923.101 1127.19 Q923.848 1127.7 925.207 1128.21 Q926.565 1128.68 927.38 1128.85 Q928.23 1129.02 929.826 1129.36 Q935.397 1130.41 937.74 1132.69 Q940.662 1135.61 940.662 1139.31 Q940.662 1143.42 937.876 1146.21 Q935.091 1148.99 929.486 1148.99 Q924.969 1148.99 921.81 1145.97 Q921.402 1146.38 921.097 1146.75 Q920.791 1147.09 920.655 1147.23 Q920.553 1147.36 920.519 1147.47 Q920.485 1147.53 920.417 1147.6 Q919.025 1148.99 918.685 1148.99 Q918.141 1148.99 918.04 1148.62 Q917.938 1148.28 917.938 1147.3 Z" fill="#000000" fill-rule="nonzero" fill-opacity="1" /><path clip-path="url(#clip390)" d="M944.941 1132.89 Q944.941 1126.34 949.153 1121.69 Q953.365 1117.03 959.411 1117.03 Q965.526 1117.03 968.685 1121.01 Q971.877 1124.98 971.877 1130.69 Q971.877 1131.74 971.606 1131.94 Q971.334 1132.15 970.145 1132.15 L950.716 1132.15 Q950.716 1139.25 952.822 1142.57 Q955.743 1147.23 960.668 1147.23 Q961.348 1147.23 962.163 1147.09 Q962.978 1146.96 964.642 1146.38 Q966.307 1145.77 967.767 1144.17 Q969.228 1142.57 970.077 1140.06 Q970.281 1139.08 970.96 1139.11 Q971.877 1139.11 971.877 1139.93 Q971.877 1140.54 971.198 1141.93 Q970.553 1143.29 969.296 1144.92 Q968.039 1146.55 965.593 1147.77 Q963.182 1148.99 960.261 1148.99 Q954.147 1148.99 949.527 1144.38 Q944.941 1139.72 944.941 1132.89 M950.784 1130.69 L967.292 1130.69 Q967.292 1129.23 967.02 1127.6 Q966.782 1125.97 966.035 1123.72 Q965.322 1121.45 963.623 1120.02 Q961.925 1118.59 959.411 1118.59 Q958.291 1118.59 957.068 1119.07 Q955.879 1119.55 954.418 1120.7 Q952.958 1121.85 951.939 1124.47 Q950.92 1127.09 950.784 1130.69 Z" fill="#000000" fill-rule="nonzero" fill-opacity="1" /><path clip-path="url(#clip390)" d="M976.191 1147.3 L976.191 1138.13 Q976.191 1137.34 976.225 1137.07 Q976.259 1136.8 976.463 1136.6 Q976.667 1136.39 977.074 1136.39 Q977.55 1136.39 977.72 1136.6 Q977.924 1136.8 978.059 1137.58 Q979.112 1142.37 981.354 1144.92 Q983.63 1147.43 987.74 1147.43 Q991.646 1147.43 993.616 1145.7 Q995.586 1143.97 995.586 1141.11 Q995.586 1136.02 988.351 1134.73 Q984.174 1133.88 982.441 1133.34 Q980.709 1132.76 979.18 1131.5 Q976.191 1129.06 976.191 1125.59 Q976.191 1122.13 978.807 1119.58 Q981.456 1117.03 987.298 1117.03 Q991.205 1117.03 993.854 1119 Q994.635 1118.39 995.043 1117.88 Q995.96 1117.03 996.436 1117.03 Q996.979 1117.03 997.081 1117.41 Q997.183 1117.74 997.183 1118.73 L997.183 1125.73 Q997.183 1126.51 997.149 1126.78 Q997.115 1127.05 996.911 1127.26 Q996.707 1127.43 996.266 1127.43 Q995.485 1127.43 995.451 1126.78 Q994.907 1118.36 987.298 1118.36 Q983.188 1118.36 981.354 1119.95 Q979.52 1121.52 979.52 1123.66 Q979.52 1124.84 980.063 1125.76 Q980.641 1126.64 981.354 1127.19 Q982.102 1127.7 983.46 1128.21 Q984.819 1128.68 985.634 1128.85 Q986.483 1129.02 988.08 1129.36 Q993.65 1130.41 995.994 1132.69 Q998.915 1135.61 998.915 1139.31 Q998.915 1143.42 996.13 1146.21 Q993.345 1148.99 987.74 1148.99 Q983.222 1148.99 980.063 1145.97 Q979.656 1146.38 979.35 1146.75 Q979.044 1147.09 978.909 1147.23 Q978.807 1147.36 978.773 1147.47 Q978.739 1147.53 978.671 1147.6 Q977.278 1148.99 976.939 1148.99 Q976.395 1148.99 976.293 1148.62 Q976.191 1148.28 976.191 1147.3 Z" fill="#000000" fill-rule="nonzero" fill-opacity="1" /><path clip-path="url(#clip390)" d="M1002.58 1120.39 L1002.58 1118.87 Q1005.78 1118.73 1007.88 1116.49 Q1010.02 1114.21 1010.74 1111.43 Q1011.48 1108.64 1011.55 1105.41 L1013.28 1105.41 L1013.28 1118.22 L1023.24 1118.22 L1023.24 1120.39 L1013.28 1120.39 L1013.28 1139.72 Q1013.28 1147.23 1017.97 1147.23 Q1019.97 1147.23 1021.3 1145.19 Q1022.62 1143.12 1022.62 1139.45 L1022.62 1135.61 L1024.36 1135.61 L1024.36 1139.59 Q1024.36 1143.36 1022.62 1146.18 Q1020.89 1148.99 1017.46 1148.99 Q1016.2 1148.99 1014.95 1148.66 Q1013.72 1148.35 1012.09 1147.53 Q1010.5 1146.68 1009.48 1144.65 Q1008.49 1142.57 1008.49 1139.59 L1008.49 1120.39 L1002.58 1120.39 Z" fill="#000000" fill-rule="nonzero" fill-opacity="1" /><path clip-path="url(#clip390)" d="M1054.28 1141.59 Q1054.28 1135.68 1061.24 1132.55 Q1065.42 1130.55 1074.05 1130.04 L1074.05 1127.49 Q1074.05 1123.18 1071.77 1120.9 Q1069.53 1118.59 1066.68 1118.59 Q1061.58 1118.59 1059.14 1121.79 Q1061.21 1121.85 1061.96 1122.91 Q1062.71 1123.93 1062.71 1124.98 Q1062.71 1126.37 1061.82 1127.29 Q1060.97 1128.17 1059.51 1128.17 Q1058.12 1128.17 1057.2 1127.32 Q1056.29 1126.44 1056.29 1124.91 Q1056.29 1121.52 1059.34 1119.27 Q1062.43 1117.03 1066.82 1117.03 Q1072.52 1117.03 1076.33 1120.87 Q1077.52 1122.06 1078.09 1123.59 Q1078.7 1125.12 1078.77 1126.13 Q1078.84 1127.12 1078.84 1129.09 L1078.84 1142.98 Q1078.84 1143.39 1078.98 1144.07 Q1079.11 1144.75 1079.72 1145.63 Q1080.37 1146.48 1081.42 1146.48 Q1083.93 1146.48 1083.9 1142.03 L1083.9 1138.13 L1085.67 1138.13 L1085.67 1142.03 Q1085.67 1145.73 1083.7 1147.19 Q1081.76 1148.62 1079.96 1148.62 Q1077.65 1148.62 1076.19 1146.92 Q1074.73 1145.22 1074.53 1142.91 Q1073.47 1145.56 1071.06 1147.3 Q1068.68 1148.99 1065.42 1148.99 Q1062.91 1148.99 1060.53 1148.35 Q1058.19 1147.74 1056.22 1146.01 Q1054.28 1144.24 1054.28 1141.59 M1059.65 1141.52 Q1059.65 1144.1 1061.48 1145.77 Q1063.32 1147.43 1065.9 1147.43 Q1068.82 1147.43 1071.44 1145.19 Q1074.05 1142.91 1074.05 1138.46 L1074.05 1131.5 Q1066.34 1131.77 1062.98 1134.86 Q1059.65 1137.92 1059.65 1141.52 Z" fill="#000000" fill-rule="nonzero" fill-opacity="1" /><path clip-path="url(#clip390)" d="M1088.08 1159.56 Q1091.78 1159.56 1092.63 1159.08 Q1093.51 1158.64 1093.51 1156.43 L1093.51 1123.86 Q1093.51 1121.55 1092.63 1120.97 Q1091.78 1120.39 1088.08 1120.39 L1088.08 1118.22 L1098.1 1117.47 L1098.1 1122.06 Q1102.28 1117.47 1107.85 1117.47 Q1113.76 1117.47 1118.07 1122.06 Q1122.39 1126.64 1122.39 1133.2 Q1122.39 1139.82 1117.8 1144.41 Q1113.21 1148.99 1106.86 1148.99 Q1103.4 1148.99 1101.05 1147.23 Q1098.74 1145.43 1098.3 1144.1 L1098.3 1144.75 L1098.3 1156.43 Q1098.3 1158.68 1099.19 1159.12 Q1100.07 1159.56 1103.74 1159.56 L1103.74 1161.7 Q1096.43 1161.49 1095.89 1161.49 Q1095.21 1161.49 1088.08 1161.7 L1088.08 1159.56 M1098.3 1140.3 Q1098.3 1141.35 1098.44 1141.73 Q1098.61 1142.1 1099.29 1143.22 Q1102.04 1147.43 1106.52 1147.43 Q1106.56 1147.43 1106.59 1147.43 Q1110.57 1147.43 1113.59 1143.39 Q1116.61 1139.31 1116.61 1133.2 Q1116.61 1127.36 1113.86 1123.28 Q1111.11 1119.21 1107.3 1119.21 Q1104.59 1119.21 1102.21 1120.67 Q1099.83 1122.13 1098.3 1124.78 L1098.3 1140.3 Z" fill="#000000" fill-rule="nonzero" fill-opacity="1" /><path clip-path="url(#clip390)" d="M1126.67 1159.56 Q1130.37 1159.56 1131.22 1159.08 Q1132.1 1158.64 1132.1 1156.43 L1132.1 1123.86 Q1132.1 1121.55 1131.22 1120.97 Q1130.37 1120.39 1126.67 1120.39 L1126.67 1118.22 L1136.69 1117.47 L1136.69 1122.06 Q1140.86 1117.47 1146.43 1117.47 Q1152.34 1117.47 1156.66 1122.06 Q1160.97 1126.64 1160.97 1133.2 Q1160.97 1139.82 1156.39 1144.41 Q1151.8 1148.99 1145.45 1148.99 Q1141.98 1148.99 1139.64 1147.23 Q1137.33 1145.43 1136.89 1144.1 L1136.89 1144.75 L1136.89 1156.43 Q1136.89 1158.68 1137.77 1159.12 Q1138.66 1159.56 1142.32 1159.56 L1142.32 1161.7 Q1135.02 1161.49 1134.48 1161.49 Q1133.8 1161.49 1126.67 1161.7 L1126.67 1159.56 M1136.89 1140.3 Q1136.89 1141.35 1137.03 1141.73 Q1137.2 1142.1 1137.87 1143.22 Q1140.63 1147.43 1145.11 1147.43 Q1145.14 1147.43 1145.18 1147.43 Q1149.15 1147.43 1152.17 1143.39 Q1155.2 1139.31 1155.2 1133.2 Q1155.2 1127.36 1152.45 1123.28 Q1149.7 1119.21 1145.89 1119.21 Q1143.17 1119.21 1140.8 1120.67 Q1138.42 1122.13 1136.89 1124.78 L1136.89 1140.3 Z" fill="#000000" fill-rule="nonzero" fill-opacity="1" /><path clip-path="url(#clip390)" d="M1165.25 1148.21 L1165.25 1146.07 Q1168.95 1146.07 1169.8 1145.63 Q1170.69 1145.16 1170.69 1142.91 L1170.69 1124.27 Q1170.69 1121.69 1169.77 1121.04 Q1168.89 1120.39 1165.25 1120.39 L1165.25 1118.22 L1174.93 1117.47 L1174.93 1125.12 Q1175.92 1122.13 1177.99 1119.82 Q1180.1 1117.47 1183.49 1117.47 Q1185.73 1117.47 1187.16 1118.73 Q1188.62 1119.99 1188.62 1121.72 Q1188.62 1123.25 1187.67 1124.03 Q1186.75 1124.78 1185.63 1124.78 Q1184.38 1124.78 1183.49 1123.99 Q1182.64 1123.18 1182.64 1121.79 Q1182.64 1120.94 1183.02 1120.29 Q1183.42 1119.61 1183.73 1119.38 Q1184.04 1119.14 1184.24 1119.07 Q1184.1 1119 1183.49 1119 Q1179.65 1119 1177.45 1122.84 Q1175.27 1126.64 1175.27 1132.08 L1175.27 1142.78 Q1175.27 1144.78 1176.09 1145.43 Q1176.94 1146.07 1180.57 1146.07 L1182.03 1146.07 L1182.03 1148.21 Q1179.25 1148.01 1173.2 1148.01 Q1172.35 1148.01 1171.03 1148.04 Q1169.7 1148.08 1167.97 1148.15 Q1166.24 1148.21 1165.25 1148.21 Z" fill="#000000" fill-rule="nonzero" fill-opacity="1" /><path clip-path="url(#clip390)" d="M1197.01 1144.48 Q1192.43 1139.93 1192.43 1133.34 Q1192.43 1126.71 1196.91 1121.89 Q1201.43 1117.03 1207.88 1117.03 Q1214.2 1117.03 1218.72 1121.85 Q1223.27 1126.64 1223.27 1133.34 Q1223.27 1139.89 1218.68 1144.44 Q1214.13 1148.99 1207.81 1148.99 Q1201.63 1148.99 1197.01 1144.48 M1198.2 1132.76 Q1198.2 1139.52 1199.97 1142.57 Q1202.68 1147.23 1207.88 1147.23 Q1210.46 1147.23 1212.6 1145.84 Q1214.78 1144.44 1215.97 1142.1 Q1217.49 1139.04 1217.49 1132.76 Q1217.49 1126.07 1215.66 1123.11 Q1212.94 1118.59 1207.81 1118.59 Q1205.57 1118.59 1203.36 1119.78 Q1201.19 1120.94 1199.86 1123.25 Q1198.2 1126.3 1198.2 1132.76 Z" fill="#000000" fill-rule="nonzero" fill-opacity="1" /><path clip-path="url(#clip390)" d="M1228.19 1141.59 Q1228.19 1135.68 1235.16 1132.55 Q1239.33 1130.55 1247.96 1130.04 L1247.96 1127.49 Q1247.96 1123.18 1245.69 1120.9 Q1243.44 1118.59 1240.59 1118.59 Q1235.5 1118.59 1233.05 1121.79 Q1235.12 1121.85 1235.87 1122.91 Q1236.62 1123.93 1236.62 1124.98 Q1236.62 1126.37 1235.73 1127.29 Q1234.88 1128.17 1233.42 1128.17 Q1232.03 1128.17 1231.11 1127.32 Q1230.2 1126.44 1230.2 1124.91 Q1230.2 1121.52 1233.25 1119.27 Q1236.35 1117.03 1240.73 1117.03 Q1246.43 1117.03 1250.24 1120.87 Q1251.43 1122.06 1252 1123.59 Q1252.62 1125.12 1252.68 1126.13 Q1252.75 1127.12 1252.75 1129.09 L1252.75 1142.98 Q1252.75 1143.39 1252.89 1144.07 Q1253.02 1144.75 1253.63 1145.63 Q1254.28 1146.48 1255.33 1146.48 Q1257.85 1146.48 1257.81 1142.03 L1257.81 1138.13 L1259.58 1138.13 L1259.58 1142.03 Q1259.58 1145.73 1257.61 1147.19 Q1255.67 1148.62 1253.87 1148.62 Q1251.56 1148.62 1250.1 1146.92 Q1248.64 1145.22 1248.44 1142.91 Q1247.38 1145.56 1244.97 1147.3 Q1242.6 1148.99 1239.33 1148.99 Q1236.82 1148.99 1234.44 1148.35 Q1232.1 1147.74 1230.13 1146.01 Q1228.19 1144.24 1228.19 1141.59 M1233.56 1141.52 Q1233.56 1144.1 1235.39 1145.77 Q1237.23 1147.43 1239.81 1147.43 Q1242.73 1147.43 1245.35 1145.19 Q1247.96 1142.91 1247.96 1138.46 L1247.96 1131.5 Q1240.25 1131.77 1236.89 1134.86 Q1233.56 1137.92 1233.56 1141.52 Z" fill="#000000" fill-rule="nonzero" fill-opacity="1" /><path clip-path="url(#clip390)" d="M1266.85 1144.41 Q1262.43 1139.79 1262.43 1133.2 Q1262.43 1126.58 1266.78 1121.82 Q1271.13 1117.03 1277.51 1117.03 Q1281.76 1117.03 1284.95 1119.07 Q1288.15 1121.07 1288.15 1124.5 Q1288.15 1126.03 1287.23 1126.92 Q1286.35 1127.77 1284.95 1127.77 Q1283.49 1127.77 1282.61 1126.88 Q1281.76 1125.97 1281.76 1124.57 Q1281.76 1123.96 1281.96 1123.35 Q1282.17 1122.74 1282.91 1122.09 Q1283.7 1121.45 1285.02 1121.35 Q1282.54 1118.8 1277.72 1118.8 Q1277.65 1118.8 1277.58 1118.8 Q1274.05 1118.8 1271.13 1122.13 Q1268.21 1125.46 1268.21 1133.06 Q1268.21 1137.04 1269.16 1139.96 Q1270.14 1142.85 1271.74 1144.34 Q1273.34 1145.84 1274.9 1146.55 Q1276.46 1147.23 1277.99 1147.23 Q1284.82 1147.23 1287.13 1139.93 Q1287.33 1139.25 1288.01 1139.25 Q1288.93 1139.25 1288.93 1139.93 Q1288.93 1140.27 1288.65 1141.15 Q1288.38 1142.03 1287.53 1143.42 Q1286.68 1144.82 1285.46 1146.04 Q1284.27 1147.23 1282.13 1148.11 Q1280.03 1148.99 1277.38 1148.99 Q1271.26 1148.99 1266.85 1144.41 Z" fill="#000000" fill-rule="nonzero" fill-opacity="1" /><path clip-path="url(#clip390)" d="M1291.24 1148.21 L1291.24 1146.07 Q1294.94 1146.07 1295.79 1145.63 Q1296.64 1145.16 1296.64 1142.91 L1296.64 1106.74 Q1296.64 1104.16 1295.72 1103.51 Q1294.84 1102.87 1291.24 1102.87 L1291.24 1100.69 L1301.22 1099.95 L1301.22 1124.13 L1301.29 1124.13 Q1302.41 1121.62 1304.93 1119.55 Q1307.44 1117.47 1311.31 1117.47 Q1316.54 1117.47 1318.61 1120.05 Q1320.14 1121.79 1320.45 1123.72 Q1320.79 1125.66 1320.79 1130.69 L1320.79 1143.97 Q1320.86 1145.43 1321.98 1145.77 Q1323.1 1146.07 1326.22 1146.07 L1326.22 1148.21 Q1319.12 1148.01 1318.41 1148.01 Q1317.87 1148.01 1310.56 1148.21 L1310.56 1146.07 Q1314.27 1146.07 1315.12 1145.63 Q1316 1145.16 1316 1142.91 L1316 1126.71 Q1316 1123.18 1314.91 1121.11 Q1313.82 1119 1310.84 1119 Q1307.23 1119 1304.35 1122.02 Q1301.46 1125.05 1301.46 1130.14 L1301.46 1142.91 Q1301.46 1145.16 1302.31 1145.63 Q1303.19 1146.07 1306.86 1146.07 L1306.86 1148.21 Q1299.76 1148.01 1299.08 1148.01 Q1298.54 1148.01 1291.24 1148.21 Z" fill="#000000" fill-rule="nonzero" fill-opacity="1" /><path clip-path="url(#clip390)" d="M1357.61 1130.82 Q1357.61 1119.07 1361.99 1109.59 Q1363.86 1105.62 1366.47 1102.29 Q1369.09 1098.96 1370.82 1097.5 Q1372.55 1096.04 1373.03 1096.04 Q1373.71 1096.04 1373.74 1096.72 Q1373.74 1097.06 1372.83 1097.91 Q1361.62 1109.32 1361.65 1130.82 Q1361.65 1152.39 1372.55 1163.36 Q1373.74 1164.55 1373.74 1164.93 Q1373.74 1165.6 1373.03 1165.6 Q1372.55 1165.6 1370.89 1164.21 Q1369.22 1162.82 1366.64 1159.63 Q1364.06 1156.43 1362.19 1152.53 Q1357.61 1143.05 1357.61 1130.82 Z" fill="#000000" fill-rule="nonzero" fill-opacity="1" /><path clip-path="url(#clip390)" d="M1405.69 1121.35 Q1405.69 1123.61 1402.44 1123.61 L1391.36 1123.61 L1386.95 1146.18 Q1386.85 1146.76 1386.72 1147.09 Q1386.62 1147.41 1386.33 1147.96 Q1386.08 1148.47 1385.53 1148.73 Q1385.01 1149.02 1384.24 1149.02 Q1383.28 1149.02 1382.79 1148.44 Q1382.34 1147.89 1382.34 1147.22 Q1382.34 1146.8 1382.99 1144.8 L1389.46 1123.61 L1383.98 1123.61 Q1378.83 1123.61 1375.61 1128.7 Q1375.1 1129.37 1374.81 1129.44 Q1374.68 1129.47 1374.55 1129.47 Q1374.19 1129.47 1373.97 1129.31 Q1373.77 1129.15 1373.77 1128.99 L1373.74 1128.83 Q1373.74 1128.6 1374.26 1127.7 Q1374.81 1126.76 1375.77 1125.38 Q1376.77 1123.99 1377.77 1122.9 Q1379.09 1121.48 1380.57 1120.74 Q1382.05 1119.97 1382.79 1119.87 Q1383.57 1119.78 1384.56 1119.78 L1403.05 1119.78 Q1403.89 1119.78 1404.34 1119.84 Q1404.79 1119.87 1405.24 1120.26 Q1405.69 1120.61 1405.69 1121.35 Z" fill="#000000" fill-rule="nonzero" fill-opacity="1" /><path clip-path="url(#clip390)" d="M1402.26 1164.93 Q1402.26 1164.59 1403.14 1163.74 Q1414.35 1152.32 1414.35 1130.82 Q1414.35 1109.25 1403.58 1098.35 Q1402.26 1097.09 1402.26 1096.72 Q1402.26 1096.04 1402.94 1096.04 Q1403.41 1096.04 1405.08 1097.43 Q1406.77 1098.83 1409.32 1102.02 Q1411.9 1105.21 1413.81 1109.12 Q1418.39 1118.59 1418.39 1130.82 Q1418.39 1142.57 1414.01 1152.05 Q1412.14 1156.03 1409.53 1159.35 Q1406.91 1162.68 1405.18 1164.14 Q1403.45 1165.6 1402.94 1165.6 Q1402.26 1165.6 1402.26 1164.93 Z" fill="#000000" fill-rule="nonzero" fill-opacity="1" /><polyline clip-path="url(#clip392)" style="stroke:#000000; stroke-linecap:round; stroke-linejoin:round; stroke-width:2; stroke-opacity:0.1; fill:none" points="1752.76,957.184 254.635,957.184 "/>
<polyline clip-path="url(#clip392)" style="stroke:#000000; stroke-linecap:round; stroke-linejoin:round; stroke-width:2; stroke-opacity:0.1; fill:none" points="1752.76,817.194 254.635,817.194 "/>
<polyline clip-path="url(#clip392)" style="stroke:#000000; stroke-linecap:round; stroke-linejoin:round; stroke-width:2; stroke-opacity:0.1; fill:none" points="1752.76,677.203 254.635,677.203 "/>
<polyline clip-path="url(#clip392)" style="stroke:#000000; stroke-linecap:round; stroke-linejoin:round; stroke-width:2; stroke-opacity:0.1; fill:none" points="1752.76,537.212 254.635,537.212 "/>
<polyline clip-path="url(#clip392)" style="stroke:#000000; stroke-linecap:round; stroke-linejoin:round; stroke-width:2; stroke-opacity:0.1; fill:none" points="1752.76,397.221 254.635,397.221 "/>
<polyline clip-path="url(#clip392)" style="stroke:#000000; stroke-linecap:round; stroke-linejoin:round; stroke-width:2; stroke-opacity:0.1; fill:none" points="1752.76,257.23 254.635,257.23 "/>
<polyline clip-path="url(#clip392)" style="stroke:#000000; stroke-linecap:round; stroke-linejoin:round; stroke-width:2; stroke-opacity:0.1; fill:none" points="1752.76,117.24 254.635,117.24 "/>
<polyline clip-path="url(#clip390)" style="stroke:#000000; stroke-linecap:round; stroke-linejoin:round; stroke-width:4; stroke-opacity:1; fill:none" points="254.635,1027.18 254.635,47.2441 "/>
<polyline clip-path="url(#clip390)" style="stroke:#000000; stroke-linecap:round; stroke-linejoin:round; stroke-width:4; stroke-opacity:1; fill:none" points="1752.76,1027.18 1752.76,47.2441 "/>
<polyline clip-path="url(#clip390)" style="stroke:#000000; stroke-linecap:round; stroke-linejoin:round; stroke-width:4; stroke-opacity:1; fill:none" points="254.635,957.184 273.532,957.184 "/>
<polyline clip-path="url(#clip390)" style="stroke:#000000; stroke-linecap:round; stroke-linejoin:round; stroke-width:4; stroke-opacity:1; fill:none" points="254.635,817.194 273.532,817.194 "/>
<polyline clip-path="url(#clip390)" style="stroke:#000000; stroke-linecap:round; stroke-linejoin:round; stroke-width:4; stroke-opacity:1; fill:none" points="254.635,677.203 273.532,677.203 "/>
<polyline clip-path="url(#clip390)" style="stroke:#000000; stroke-linecap:round; stroke-linejoin:round; stroke-width:4; stroke-opacity:1; fill:none" points="254.635,537.212 273.532,537.212 "/>
<polyline clip-path="url(#clip390)" style="stroke:#000000; stroke-linecap:round; stroke-linejoin:round; stroke-width:4; stroke-opacity:1; fill:none" points="254.635,397.221 273.532,397.221 "/>
<polyline clip-path="url(#clip390)" style="stroke:#000000; stroke-linecap:round; stroke-linejoin:round; stroke-width:4; stroke-opacity:1; fill:none" points="254.635,257.23 273.532,257.23 "/>
<polyline clip-path="url(#clip390)" style="stroke:#000000; stroke-linecap:round; stroke-linejoin:round; stroke-width:4; stroke-opacity:1; fill:none" points="254.635,117.24 273.532,117.24 "/>
<path clip-path="url(#clip390)" d="M150.659 961.1 Q150.956 961.396 150.956 961.816 Q150.956 962.236 150.659 962.533 Q150.363 962.829 149.943 962.829 L118.273 962.829 Q117.853 962.829 117.557 962.533 Q117.26 962.236 117.26 961.816 Q117.26 961.396 117.557 961.1 Q117.853 960.803 118.273 960.803 L149.943 960.803 Q150.363 960.803 150.659 961.1 Z" fill="#000000" fill-rule="nonzero" fill-opacity="1" /><path clip-path="url(#clip390)" d="M155.896 967.646 Q155.896 966.139 156.761 965.423 Q157.625 964.707 158.737 964.707 Q159.898 964.707 160.713 965.472 Q161.553 966.214 161.553 967.523 Q161.553 968.931 160.565 969.721 Q159.602 970.512 158.218 970.314 Q159.429 972.34 161.652 973.254 Q163.9 974.168 165.975 974.168 Q168.149 974.168 169.903 972.291 Q171.682 970.413 171.682 965.818 Q171.682 961.915 170.15 959.667 Q168.643 957.419 165.654 957.419 L163.431 957.419 Q162.665 957.419 162.443 957.345 Q162.22 957.271 162.22 956.851 Q162.22 956.357 162.986 956.258 Q163.752 956.258 164.962 956.11 Q167.902 956.011 169.458 953.467 Q170.866 951.095 170.866 947.711 Q170.866 944.623 169.384 943.338 Q167.927 942.029 166.025 942.029 Q164.246 942.029 162.294 942.77 Q160.343 943.511 159.281 945.166 Q162.418 945.166 162.418 947.711 Q162.418 948.822 161.702 949.563 Q161.01 950.28 159.849 950.28 Q158.737 950.28 157.996 949.588 Q157.255 948.872 157.255 947.661 Q157.255 944.771 159.824 942.77 Q162.418 940.769 166.222 940.769 Q169.977 940.769 172.744 942.745 Q175.535 944.722 175.535 947.76 Q175.535 950.749 173.559 953.195 Q171.583 955.64 168.446 956.653 Q172.299 957.419 174.597 960.038 Q176.894 962.632 176.894 965.818 Q176.894 969.771 173.781 972.686 Q170.669 975.576 166.123 975.576 Q161.924 975.576 158.91 973.303 Q155.896 971.031 155.896 967.646 Z" fill="#000000" fill-rule="nonzero" fill-opacity="1" /><path clip-path="url(#clip390)" d="M181.044 958.284 Q181.044 950.848 182.922 946.797 Q185.54 940.769 191.716 940.769 Q193.025 940.769 194.384 941.14 Q195.767 941.485 197.497 942.844 Q199.251 944.203 200.313 946.426 Q202.339 950.725 202.339 958.284 Q202.339 965.67 200.461 969.697 Q197.719 975.576 191.667 975.576 Q189.394 975.576 187.072 974.415 Q184.774 973.254 183.317 970.462 Q181.044 966.288 181.044 958.284 M185.244 957.666 Q185.244 965.299 185.787 968.338 Q186.405 971.624 188.085 973.056 Q189.789 974.464 191.667 974.464 Q193.692 974.464 195.372 972.958 Q197.077 971.426 197.595 968.14 Q198.164 964.904 198.139 957.666 Q198.139 950.626 197.645 947.81 Q196.978 944.524 195.199 943.215 Q193.445 941.881 191.667 941.881 Q191 941.881 190.283 942.078 Q189.592 942.276 188.579 942.844 Q187.566 943.412 186.775 944.82 Q186.01 946.228 185.639 948.353 Q185.244 951.095 185.244 957.666 Z" fill="#000000" fill-rule="nonzero" fill-opacity="1" /><path clip-path="url(#clip390)" d="M206.34 958.284 Q206.34 950.848 208.218 946.797 Q210.836 940.769 217.012 940.769 Q218.322 940.769 219.68 941.14 Q221.064 941.485 222.793 942.844 Q224.547 944.203 225.609 946.426 Q227.635 950.725 227.635 958.284 Q227.635 965.67 225.757 969.697 Q223.015 975.576 216.963 975.576 Q214.69 975.576 212.368 974.415 Q210.071 973.254 208.613 970.462 Q206.34 966.288 206.34 958.284 M210.54 957.666 Q210.54 965.299 211.084 968.338 Q211.701 971.624 213.381 973.056 Q215.085 974.464 216.963 974.464 Q218.989 974.464 220.668 972.958 Q222.373 971.426 222.892 968.14 Q223.46 964.904 223.435 957.666 Q223.435 950.626 222.941 947.81 Q222.274 944.524 220.495 943.215 Q218.742 941.881 216.963 941.881 Q216.296 941.881 215.58 942.078 Q214.888 942.276 213.875 942.844 Q212.862 943.412 212.072 944.82 Q211.306 946.228 210.935 948.353 Q210.54 951.095 210.54 957.666 Z" fill="#000000" fill-rule="nonzero" fill-opacity="1" /><path clip-path="url(#clip390)" d="M150.659 821.109 Q150.956 821.406 150.956 821.825 Q150.956 822.245 150.659 822.542 Q150.363 822.838 149.943 822.838 L118.273 822.838 Q117.853 822.838 117.557 822.542 Q117.26 822.245 117.26 821.825 Q117.26 821.406 117.557 821.109 Q117.853 820.813 118.273 820.813 L149.943 820.813 Q150.363 820.813 150.659 821.109 Z" fill="#000000" fill-rule="nonzero" fill-opacity="1" /><path clip-path="url(#clip390)" d="M156.291 834.474 Q156.291 833.56 156.366 833.288 Q156.464 833.016 156.86 832.596 L166.568 821.776 Q171.879 815.798 171.879 810.585 Q171.879 807.201 170.101 804.78 Q168.347 802.359 165.111 802.359 Q162.887 802.359 161.01 803.718 Q159.132 805.077 158.268 807.498 Q158.416 807.448 158.935 807.448 Q160.195 807.448 160.886 808.239 Q161.603 809.029 161.603 810.091 Q161.603 811.45 160.713 812.117 Q159.849 812.759 158.984 812.759 Q158.638 812.759 158.169 812.685 Q157.724 812.611 157.008 811.919 Q156.291 811.203 156.291 809.943 Q156.291 806.411 158.959 803.594 Q161.652 800.778 165.753 800.778 Q170.397 800.778 173.436 803.545 Q176.499 806.287 176.499 810.585 Q176.499 812.092 176.029 813.476 Q175.585 814.834 174.967 815.897 Q174.374 816.959 172.744 818.663 Q171.113 820.368 169.804 821.578 Q168.495 822.789 165.555 825.358 L160.195 830.57 L169.31 830.57 Q173.757 830.57 174.103 830.175 Q174.597 829.459 175.214 825.679 L176.499 825.679 L175.066 834.474 L156.291 834.474 Z" fill="#000000" fill-rule="nonzero" fill-opacity="1" /><path clip-path="url(#clip390)" d="M181.044 818.293 Q181.044 810.857 182.922 806.806 Q185.54 800.778 191.716 800.778 Q193.025 800.778 194.384 801.149 Q195.767 801.495 197.497 802.853 Q199.251 804.212 200.313 806.435 Q202.339 810.734 202.339 818.293 Q202.339 825.679 200.461 829.706 Q197.719 835.585 191.667 835.585 Q189.394 835.585 187.072 834.424 Q184.774 833.263 183.317 830.472 Q181.044 826.297 181.044 818.293 M185.244 817.675 Q185.244 825.309 185.787 828.347 Q186.405 831.633 188.085 833.066 Q189.789 834.474 191.667 834.474 Q193.692 834.474 195.372 832.967 Q197.077 831.435 197.595 828.15 Q198.164 824.913 198.139 817.675 Q198.139 810.635 197.645 807.819 Q196.978 804.533 195.199 803.224 Q193.445 801.89 191.667 801.89 Q191 801.89 190.283 802.088 Q189.592 802.285 188.579 802.853 Q187.566 803.421 186.775 804.83 Q186.01 806.238 185.639 808.362 Q185.244 811.104 185.244 817.675 Z" fill="#000000" fill-rule="nonzero" fill-opacity="1" /><path clip-path="url(#clip390)" d="M206.34 818.293 Q206.34 810.857 208.218 806.806 Q210.836 800.778 217.012 800.778 Q218.322 800.778 219.68 801.149 Q221.064 801.495 222.793 802.853 Q224.547 804.212 225.609 806.435 Q227.635 810.734 227.635 818.293 Q227.635 825.679 225.757 829.706 Q223.015 835.585 216.963 835.585 Q214.69 835.585 212.368 834.424 Q210.071 833.263 208.613 830.472 Q206.34 826.297 206.34 818.293 M210.54 817.675 Q210.54 825.309 211.084 828.347 Q211.701 831.633 213.381 833.066 Q215.085 834.474 216.963 834.474 Q218.989 834.474 220.668 832.967 Q222.373 831.435 222.892 828.15 Q223.46 824.913 223.435 817.675 Q223.435 810.635 222.941 807.819 Q222.274 804.533 220.495 803.224 Q218.742 801.89 216.963 801.89 Q216.296 801.89 215.58 802.088 Q214.888 802.285 213.875 802.853 Q212.862 803.421 212.072 804.83 Q211.306 806.238 210.935 808.362 Q210.54 811.104 210.54 817.675 Z" fill="#000000" fill-rule="nonzero" fill-opacity="1" /><path clip-path="url(#clip390)" d="M150.659 681.118 Q150.956 681.415 150.956 681.835 Q150.956 682.255 150.659 682.551 Q150.363 682.848 149.943 682.848 L118.273 682.848 Q117.853 682.848 117.557 682.551 Q117.26 682.255 117.26 681.835 Q117.26 681.415 117.557 681.118 Q117.853 680.822 118.273 680.822 L149.943 680.822 Q150.363 680.822 150.659 681.118 Z" fill="#000000" fill-rule="nonzero" fill-opacity="1" /><path clip-path="url(#clip390)" d="M158.268 665.605 L158.268 664.024 Q164.345 664.024 167.482 660.787 Q168.347 660.787 168.495 660.985 Q168.643 661.183 168.643 662.097 L168.643 690.481 Q168.643 691.988 169.384 692.457 Q170.125 692.926 173.361 692.926 L174.967 692.926 L174.967 694.483 Q173.189 694.335 166.766 694.335 Q160.343 694.335 158.589 694.483 L158.589 692.926 L160.195 692.926 Q163.381 692.926 164.147 692.482 Q164.913 692.012 164.913 690.481 L164.913 664.271 Q162.27 665.605 158.268 665.605 Z" fill="#000000" fill-rule="nonzero" fill-opacity="1" /><path clip-path="url(#clip390)" d="M181.044 678.302 Q181.044 670.866 182.922 666.815 Q185.54 660.787 191.716 660.787 Q193.025 660.787 194.384 661.158 Q195.767 661.504 197.497 662.862 Q199.251 664.221 200.313 666.444 Q202.339 670.743 202.339 678.302 Q202.339 685.688 200.461 689.715 Q197.719 695.594 191.667 695.594 Q189.394 695.594 187.072 694.433 Q184.774 693.272 183.317 690.481 Q181.044 686.306 181.044 678.302 M185.244 677.685 Q185.244 685.318 185.787 688.356 Q186.405 691.642 188.085 693.075 Q189.789 694.483 191.667 694.483 Q193.692 694.483 195.372 692.976 Q197.077 691.444 197.595 688.159 Q198.164 684.923 198.139 677.685 Q198.139 670.644 197.645 667.828 Q196.978 664.542 195.199 663.233 Q193.445 661.899 191.667 661.899 Q191 661.899 190.283 662.097 Q189.592 662.294 188.579 662.862 Q187.566 663.431 186.775 664.839 Q186.01 666.247 185.639 668.371 Q185.244 671.113 185.244 677.685 Z" fill="#000000" fill-rule="nonzero" fill-opacity="1" /><path clip-path="url(#clip390)" d="M206.34 678.302 Q206.34 670.866 208.218 666.815 Q210.836 660.787 217.012 660.787 Q218.322 660.787 219.68 661.158 Q221.064 661.504 222.793 662.862 Q224.547 664.221 225.609 666.444 Q227.635 670.743 227.635 678.302 Q227.635 685.688 225.757 689.715 Q223.015 695.594 216.963 695.594 Q214.69 695.594 212.368 694.433 Q210.071 693.272 208.613 690.481 Q206.34 686.306 206.34 678.302 M210.54 677.685 Q210.54 685.318 211.084 688.356 Q211.701 691.642 213.381 693.075 Q215.085 694.483 216.963 694.483 Q218.989 694.483 220.668 692.976 Q222.373 691.444 222.892 688.159 Q223.46 684.923 223.435 677.685 Q223.435 670.644 222.941 667.828 Q222.274 664.542 220.495 663.233 Q218.742 661.899 216.963 661.899 Q216.296 661.899 215.58 662.097 Q214.888 662.294 213.875 662.862 Q212.862 663.431 212.072 664.839 Q211.306 666.247 210.935 668.371 Q210.54 671.113 210.54 677.685 Z" fill="#000000" fill-rule="nonzero" fill-opacity="1" /><path clip-path="url(#clip390)" d="M206.34 538.311 Q206.34 530.876 208.218 526.824 Q210.836 520.797 217.012 520.797 Q218.322 520.797 219.68 521.167 Q221.064 521.513 222.793 522.872 Q224.547 524.23 225.609 526.454 Q227.635 530.752 227.635 538.311 Q227.635 545.698 225.757 549.724 Q223.015 555.604 216.963 555.604 Q214.69 555.604 212.368 554.443 Q210.071 553.282 208.613 550.49 Q206.34 546.315 206.34 538.311 M210.54 537.694 Q210.54 545.327 211.084 548.366 Q211.701 551.651 213.381 553.084 Q215.085 554.492 216.963 554.492 Q218.989 554.492 220.668 552.985 Q222.373 551.453 222.892 548.168 Q223.46 544.932 223.435 537.694 Q223.435 530.653 222.941 527.837 Q222.274 524.551 220.495 523.242 Q218.742 521.908 216.963 521.908 Q216.296 521.908 215.58 522.106 Q214.888 522.303 213.875 522.872 Q212.862 523.44 212.072 524.848 Q211.306 526.256 210.935 528.381 Q210.54 531.123 210.54 537.694 Z" fill="#000000" fill-rule="nonzero" fill-opacity="1" /><path clip-path="url(#clip390)" d="M158.268 385.623 L158.268 384.042 Q164.345 384.042 167.482 380.806 Q168.347 380.806 168.495 381.003 Q168.643 381.201 168.643 382.115 L168.643 410.499 Q168.643 412.006 169.384 412.475 Q170.125 412.945 173.361 412.945 L174.967 412.945 L174.967 414.501 Q173.189 414.353 166.766 414.353 Q160.343 414.353 158.589 414.501 L158.589 412.945 L160.195 412.945 Q163.381 412.945 164.147 412.5 Q164.913 412.031 164.913 410.499 L164.913 384.289 Q162.27 385.623 158.268 385.623 Z" fill="#000000" fill-rule="nonzero" fill-opacity="1" /><path clip-path="url(#clip390)" d="M181.044 398.32 Q181.044 390.885 182.922 386.833 Q185.54 380.806 191.716 380.806 Q193.025 380.806 194.384 381.176 Q195.767 381.522 197.497 382.881 Q199.251 384.24 200.313 386.463 Q202.339 390.761 202.339 398.32 Q202.339 405.707 200.461 409.733 Q197.719 415.613 191.667 415.613 Q189.394 415.613 187.072 414.452 Q184.774 413.291 183.317 410.499 Q181.044 406.324 181.044 398.32 M185.244 397.703 Q185.244 405.336 185.787 408.375 Q186.405 411.66 188.085 413.093 Q189.789 414.501 191.667 414.501 Q193.692 414.501 195.372 412.994 Q197.077 411.463 197.595 408.177 Q198.164 404.941 198.139 397.703 Q198.139 390.662 197.645 387.846 Q196.978 384.561 195.199 383.251 Q193.445 381.917 191.667 381.917 Q191 381.917 190.283 382.115 Q189.592 382.313 188.579 382.881 Q187.566 383.449 186.775 384.857 Q186.01 386.265 185.639 388.39 Q185.244 391.132 185.244 397.703 Z" fill="#000000" fill-rule="nonzero" fill-opacity="1" /><path clip-path="url(#clip390)" d="M206.34 398.32 Q206.34 390.885 208.218 386.833 Q210.836 380.806 217.012 380.806 Q218.322 380.806 219.68 381.176 Q221.064 381.522 222.793 382.881 Q224.547 384.24 225.609 386.463 Q227.635 390.761 227.635 398.32 Q227.635 405.707 225.757 409.733 Q223.015 415.613 216.963 415.613 Q214.69 415.613 212.368 414.452 Q210.071 413.291 208.613 410.499 Q206.34 406.324 206.34 398.32 M210.54 397.703 Q210.54 405.336 211.084 408.375 Q211.701 411.66 213.381 413.093 Q215.085 414.501 216.963 414.501 Q218.989 414.501 220.668 412.994 Q222.373 411.463 222.892 408.177 Q223.46 404.941 223.435 397.703 Q223.435 390.662 222.941 387.846 Q222.274 384.561 220.495 383.251 Q218.742 381.917 216.963 381.917 Q216.296 381.917 215.58 382.115 Q214.888 382.313 213.875 382.881 Q212.862 383.449 212.072 384.857 Q211.306 386.265 210.935 388.39 Q210.54 391.132 210.54 397.703 Z" fill="#000000" fill-rule="nonzero" fill-opacity="1" /><path clip-path="url(#clip390)" d="M156.291 274.51 Q156.291 273.596 156.366 273.325 Q156.464 273.053 156.86 272.633 L166.568 261.813 Q171.879 255.835 171.879 250.622 Q171.879 247.238 170.101 244.817 Q168.347 242.396 165.111 242.396 Q162.887 242.396 161.01 243.755 Q159.132 245.113 158.268 247.534 Q158.416 247.485 158.935 247.485 Q160.195 247.485 160.886 248.275 Q161.603 249.066 161.603 250.128 Q161.603 251.487 160.713 252.154 Q159.849 252.796 158.984 252.796 Q158.638 252.796 158.169 252.722 Q157.724 252.648 157.008 251.956 Q156.291 251.24 156.291 249.98 Q156.291 246.447 158.959 243.631 Q161.652 240.815 165.753 240.815 Q170.397 240.815 173.436 243.582 Q176.499 246.324 176.499 250.622 Q176.499 252.129 176.029 253.512 Q175.585 254.871 174.967 255.933 Q174.374 256.996 172.744 258.7 Q171.113 260.405 169.804 261.615 Q168.495 262.826 165.555 265.395 L160.195 270.607 L169.31 270.607 Q173.757 270.607 174.103 270.212 Q174.597 269.496 175.214 265.716 L176.499 265.716 L175.066 274.51 L156.291 274.51 Z" fill="#000000" fill-rule="nonzero" fill-opacity="1" /><path clip-path="url(#clip390)" d="M181.044 258.33 Q181.044 250.894 182.922 246.843 Q185.54 240.815 191.716 240.815 Q193.025 240.815 194.384 241.185 Q195.767 241.531 197.497 242.89 Q199.251 244.249 200.313 246.472 Q202.339 250.77 202.339 258.33 Q202.339 265.716 200.461 269.743 Q197.719 275.622 191.667 275.622 Q189.394 275.622 187.072 274.461 Q184.774 273.3 183.317 270.508 Q181.044 266.334 181.044 258.33 M185.244 257.712 Q185.244 265.345 185.787 268.384 Q186.405 271.669 188.085 273.102 Q189.789 274.51 191.667 274.51 Q193.692 274.51 195.372 273.003 Q197.077 271.472 197.595 268.186 Q198.164 264.95 198.139 257.712 Q198.139 250.672 197.645 247.855 Q196.978 244.57 195.199 243.261 Q193.445 241.927 191.667 241.927 Q191 241.927 190.283 242.124 Q189.592 242.322 188.579 242.89 Q187.566 243.458 186.775 244.866 Q186.01 246.274 185.639 248.399 Q185.244 251.141 185.244 257.712 Z" fill="#000000" fill-rule="nonzero" fill-opacity="1" /><path clip-path="url(#clip390)" d="M206.34 258.33 Q206.34 250.894 208.218 246.843 Q210.836 240.815 217.012 240.815 Q218.322 240.815 219.68 241.185 Q221.064 241.531 222.793 242.89 Q224.547 244.249 225.609 246.472 Q227.635 250.77 227.635 258.33 Q227.635 265.716 225.757 269.743 Q223.015 275.622 216.963 275.622 Q214.69 275.622 212.368 274.461 Q210.071 273.3 208.613 270.508 Q206.34 266.334 206.34 258.33 M210.54 257.712 Q210.54 265.345 211.084 268.384 Q211.701 271.669 213.381 273.102 Q215.085 274.51 216.963 274.51 Q218.989 274.51 220.668 273.003 Q222.373 271.472 222.892 268.186 Q223.46 264.95 223.435 257.712 Q223.435 250.672 222.941 247.855 Q222.274 244.57 220.495 243.261 Q218.742 241.927 216.963 241.927 Q216.296 241.927 215.58 242.124 Q214.888 242.322 213.875 242.89 Q212.862 243.458 212.072 244.866 Q211.306 246.274 210.935 248.399 Q210.54 251.141 210.54 257.712 Z" fill="#000000" fill-rule="nonzero" fill-opacity="1" /><path clip-path="url(#clip390)" d="M155.896 127.701 Q155.896 126.194 156.761 125.478 Q157.625 124.762 158.737 124.762 Q159.898 124.762 160.713 125.527 Q161.553 126.269 161.553 127.578 Q161.553 128.986 160.565 129.776 Q159.602 130.567 158.218 130.369 Q159.429 132.395 161.652 133.309 Q163.9 134.223 165.975 134.223 Q168.149 134.223 169.903 132.346 Q171.682 130.468 171.682 125.873 Q171.682 121.97 170.15 119.722 Q168.643 117.474 165.654 117.474 L163.431 117.474 Q162.665 117.474 162.443 117.4 Q162.22 117.326 162.22 116.906 Q162.22 116.412 162.986 116.313 Q163.752 116.313 164.962 116.165 Q167.902 116.066 169.458 113.522 Q170.866 111.15 170.866 107.766 Q170.866 104.678 169.384 103.393 Q167.927 102.084 166.025 102.084 Q164.246 102.084 162.294 102.825 Q160.343 103.566 159.281 105.221 Q162.418 105.221 162.418 107.766 Q162.418 108.877 161.702 109.619 Q161.01 110.335 159.849 110.335 Q158.737 110.335 157.996 109.643 Q157.255 108.927 157.255 107.716 Q157.255 104.826 159.824 102.825 Q162.418 100.824 166.222 100.824 Q169.977 100.824 172.744 102.8 Q175.535 104.777 175.535 107.815 Q175.535 110.804 173.559 113.25 Q171.583 115.696 168.446 116.708 Q172.299 117.474 174.597 120.093 Q176.894 122.687 176.894 125.873 Q176.894 129.826 173.781 132.741 Q170.669 135.631 166.123 135.631 Q161.924 135.631 158.91 133.358 Q155.896 131.086 155.896 127.701 Z" fill="#000000" fill-rule="nonzero" fill-opacity="1" /><path clip-path="url(#clip390)" d="M181.044 118.339 Q181.044 110.903 182.922 106.852 Q185.54 100.824 191.716 100.824 Q193.025 100.824 194.384 101.195 Q195.767 101.541 197.497 102.899 Q199.251 104.258 200.313 106.481 Q202.339 110.78 202.339 118.339 Q202.339 125.725 200.461 129.752 Q197.719 135.631 191.667 135.631 Q189.394 135.631 187.072 134.47 Q184.774 133.309 183.317 130.518 Q181.044 126.343 181.044 118.339 M185.244 117.721 Q185.244 125.355 185.787 128.393 Q186.405 131.679 188.085 133.111 Q189.789 134.52 191.667 134.52 Q193.692 134.52 195.372 133.013 Q197.077 131.481 197.595 128.195 Q198.164 124.959 198.139 117.721 Q198.139 110.681 197.645 107.865 Q196.978 104.579 195.199 103.27 Q193.445 101.936 191.667 101.936 Q191 101.936 190.283 102.133 Q189.592 102.331 188.579 102.899 Q187.566 103.467 186.775 104.875 Q186.01 106.284 185.639 108.408 Q185.244 111.15 185.244 117.721 Z" fill="#000000" fill-rule="nonzero" fill-opacity="1" /><path clip-path="url(#clip390)" d="M206.34 118.339 Q206.34 110.903 208.218 106.852 Q210.836 100.824 217.012 100.824 Q218.322 100.824 219.68 101.195 Q221.064 101.541 222.793 102.899 Q224.547 104.258 225.609 106.481 Q227.635 110.78 227.635 118.339 Q227.635 125.725 225.757 129.752 Q223.015 135.631 216.963 135.631 Q214.69 135.631 212.368 134.47 Q210.071 133.309 208.613 130.518 Q206.34 126.343 206.34 118.339 M210.54 117.721 Q210.54 125.355 211.084 128.393 Q211.701 131.679 213.381 133.111 Q215.085 134.52 216.963 134.52 Q218.989 134.52 220.668 133.013 Q222.373 131.481 222.892 128.195 Q223.46 124.959 223.435 117.721 Q223.435 110.681 222.941 107.865 Q222.274 104.579 220.495 103.27 Q218.742 101.936 216.963 101.936 Q216.296 101.936 215.58 102.133 Q214.888 102.331 213.875 102.899 Q212.862 103.467 212.072 104.875 Q211.306 106.284 210.935 108.408 Q210.54 111.15 210.54 117.721 Z" fill="#000000" fill-rule="nonzero" fill-opacity="1" /><path clip-path="url(#clip390)" d="M74.2658 857.541 L72.1258 857.541 Q72.1258 853.838 71.6843 852.989 Q71.2087 852.106 68.9669 852.106 L50.319 852.106 Q47.7375 852.106 47.0921 853.023 Q46.4467 853.906 46.4467 857.541 L44.2728 857.541 L43.5255 847.86 L51.1681 847.86 Q48.179 846.875 45.8693 844.803 Q43.5255 842.697 43.5255 839.3 Q43.5255 837.058 44.7823 835.632 Q46.0391 834.171 47.7714 834.171 Q49.2999 834.171 50.0812 835.122 Q50.8285 836.039 50.8285 837.16 Q50.8285 838.417 50.0472 839.3 Q49.232 840.149 47.8394 840.149 Q46.9902 840.149 46.3448 839.776 Q45.6655 839.368 45.4277 839.062 Q45.1899 838.757 45.122 838.553 Q45.0541 838.689 45.0541 839.3 Q45.0541 843.138 48.8923 845.346 Q52.6967 847.52 58.1314 847.52 L68.831 847.52 Q70.8351 847.52 71.4805 846.705 Q72.1258 845.856 72.1258 842.221 L72.1258 840.761 L74.2658 840.761 Q74.062 843.546 74.062 849.592 Q74.062 850.441 74.0959 851.766 Q74.1299 853.091 74.1978 854.823 Q74.2658 856.555 74.2658 857.541 Z" fill="#000000" fill-rule="nonzero" fill-opacity="1" /><path clip-path="url(#clip390)" d="M58.9466 830.367 Q52.3909 830.367 47.7375 826.155 Q43.084 821.943 43.084 815.897 Q43.084 809.783 47.0581 806.624 Q51.0323 803.431 56.7387 803.431 Q57.7917 803.431 57.9955 803.703 Q58.1993 803.974 58.1993 805.163 L58.1993 824.592 Q65.2985 824.592 68.6272 822.486 Q73.2807 819.565 73.2807 814.64 Q73.2807 813.961 73.1449 813.145 Q73.009 812.33 72.4316 810.666 Q71.8201 809.001 70.2237 807.541 Q68.6272 806.08 66.1137 805.231 Q65.1286 805.027 65.1626 804.348 Q65.1626 803.431 65.9778 803.431 Q66.5892 803.431 67.9819 804.11 Q69.3405 804.756 70.971 806.012 Q72.6014 807.269 73.8242 809.715 Q75.047 812.126 75.047 815.048 Q75.047 821.162 70.4275 825.781 Q65.774 830.367 58.9466 830.367 M56.7387 824.524 L56.7387 808.016 Q55.2782 808.016 53.6477 808.288 Q52.0173 808.526 49.7755 809.273 Q47.4997 809.987 46.0731 811.685 Q44.6464 813.383 44.6464 815.897 Q44.6464 817.018 45.122 818.241 Q45.5975 819.429 46.7524 820.89 Q47.9073 822.351 50.5228 823.37 Q53.1382 824.389 56.7387 824.524 Z" fill="#000000" fill-rule="nonzero" fill-opacity="1" /><path clip-path="url(#clip390)" d="M74.2658 799.117 L72.1258 799.117 Q72.1258 795.415 71.6843 794.565 Q71.2087 793.716 68.9669 793.716 L32.7919 793.716 Q30.2104 793.716 29.565 794.633 Q28.9197 795.517 28.9197 799.117 L26.7458 799.117 L25.9985 789.131 L68.9669 789.131 Q71.2087 789.131 71.6843 788.248 Q72.1258 787.364 72.1258 783.696 L74.2658 783.696 Q74.2658 784.545 74.1978 786.311 Q74.1299 788.078 74.0959 789.369 Q74.062 790.659 74.062 791.407 Q74.062 792.222 74.2658 799.117 Z" fill="#000000" fill-rule="nonzero" fill-opacity="1" /><path clip-path="url(#clip390)" d="M67.6422 779.246 Q61.7319 779.246 58.6069 772.283 Q56.6029 768.105 56.0934 759.477 L53.5458 759.477 Q49.232 759.477 46.9562 761.753 Q44.6464 763.995 44.6464 766.848 Q44.6464 771.943 47.8394 774.389 Q47.9073 772.317 48.9603 771.57 Q49.9793 770.822 51.0323 770.822 Q52.4249 770.822 53.342 771.706 Q54.2252 772.555 54.2252 774.015 Q54.2252 775.408 53.376 776.325 Q52.4929 777.242 50.9643 777.242 Q47.5676 777.242 45.3258 774.185 Q43.084 771.094 43.084 766.712 Q43.084 761.006 46.9222 757.202 Q48.1111 756.013 49.6396 755.435 Q51.1681 754.824 52.1871 754.756 Q53.1722 754.688 55.1423 754.688 L69.0348 754.688 Q69.4424 754.688 70.1218 754.552 Q70.8011 754.416 71.6843 753.805 Q72.5335 753.16 72.5335 752.107 Q72.5335 749.593 68.0838 749.627 L64.1775 749.627 L64.1775 747.861 L68.0838 747.861 Q71.7862 747.861 73.2468 749.831 Q74.6734 751.767 74.6734 753.567 Q74.6734 755.877 72.975 757.338 Q71.2767 758.798 68.9669 759.002 Q71.6163 760.055 73.3487 762.467 Q75.047 764.844 75.047 768.105 Q75.047 770.619 74.4016 772.996 Q73.7902 775.34 72.0579 777.31 Q70.2916 779.246 67.6422 779.246 M67.5743 773.879 Q70.1558 773.879 71.8201 772.045 Q73.4845 770.211 73.4845 767.63 Q73.4845 764.708 71.2427 762.093 Q68.9669 759.477 64.5172 759.477 L57.554 759.477 Q57.8257 767.188 60.9167 770.551 Q63.9737 773.879 67.5743 773.879 Z" fill="#000000" fill-rule="nonzero" fill-opacity="1" /><path clip-path="url(#clip390)" d="M46.4467 746.06 L44.9182 746.06 Q44.7823 742.868 42.5405 740.762 Q40.2647 738.622 37.4794 737.908 Q34.6941 737.161 31.4672 737.093 L31.4672 735.361 L44.2728 735.361 L44.2728 725.408 L46.4467 725.408 L46.4467 735.361 L65.774 735.361 Q73.2807 735.361 73.2807 730.673 Q73.2807 728.669 71.2427 727.345 Q69.1707 726.02 65.5023 726.02 L61.664 726.02 L61.664 724.288 L65.6381 724.288 Q69.4085 724.288 72.2277 726.02 Q75.047 727.752 75.047 731.183 Q75.047 732.44 74.7073 733.696 Q74.4016 734.919 73.5864 736.55 Q72.7373 738.146 70.6992 739.165 Q68.6272 740.15 65.6381 740.15 L46.4467 740.15 L46.4467 746.06 Z" fill="#000000" fill-rule="nonzero" fill-opacity="1" /><path clip-path="url(#clip390)" d="M74.2658 718.105 L72.1258 718.105 Q72.1258 714.403 71.6843 713.554 Q71.2087 712.705 68.9669 712.705 L50.251 712.705 Q47.6695 712.705 47.0581 713.588 Q46.4467 714.437 46.4467 717.834 L44.2728 717.834 L43.5255 708.119 L69.0348 708.119 Q71.1068 708.119 71.6163 707.372 Q72.1258 706.625 72.1258 703.228 L74.2658 703.228 Q74.062 710.327 74.062 710.463 Q74.062 711.414 74.2658 718.105 M31.3993 715.184 Q30.0066 715.184 28.8857 714.131 Q27.7308 713.044 27.7308 711.516 Q27.7308 709.987 28.7838 708.9 Q29.8028 707.813 31.4332 707.813 Q33.0297 707.813 34.0827 708.9 Q35.1017 709.987 35.1017 711.516 Q35.1017 713.112 33.9808 714.165 Q32.8599 715.184 31.3993 715.184 Z" fill="#000000" fill-rule="nonzero" fill-opacity="1" /><path clip-path="url(#clip390)" d="M46.4467 699.831 L44.2728 699.831 Q44.4766 696.706 44.4766 693.072 Q44.4766 691.747 44.2728 685.497 L46.4467 685.497 Q46.4467 689.471 48.247 689.471 Q48.5187 689.471 49.4358 689.064 L68.831 681.251 L51.1002 674.152 Q49.9114 673.744 49.4358 673.744 Q48.247 673.744 47.3978 674.56 Q46.5146 675.341 46.4467 677.073 L44.2728 677.073 Q44.4766 673.541 44.4766 671.027 Q44.4766 668.174 44.2728 665.83 L46.4467 665.83 Q46.4467 667.902 47.3978 669.363 Q48.3149 670.823 49.1301 671.299 Q49.9114 671.74 51.1002 672.216 L73.7223 681.319 Q75.047 681.863 75.047 682.78 Q75.047 683.391 74.7753 683.663 Q74.5375 683.901 73.7223 684.24 L49.0282 694.261 Q47.2959 694.94 46.8883 695.823 Q46.4467 696.706 46.4467 699.831 Z" fill="#000000" fill-rule="nonzero" fill-opacity="1" /><path clip-path="url(#clip390)" d="M58.9466 664.505 Q52.3909 664.505 47.7375 660.293 Q43.084 656.082 43.084 650.035 Q43.084 643.921 47.0581 640.762 Q51.0323 637.569 56.7387 637.569 Q57.7917 637.569 57.9955 637.841 Q58.1993 638.113 58.1993 639.302 L58.1993 658.731 Q65.2985 658.731 68.6272 656.625 Q73.2807 653.704 73.2807 648.779 Q73.2807 648.099 73.1449 647.284 Q73.009 646.469 72.4316 644.804 Q71.8201 643.14 70.2237 641.679 Q68.6272 640.219 66.1137 639.37 Q65.1286 639.166 65.1626 638.487 Q65.1626 637.569 65.9778 637.569 Q66.5892 637.569 67.9819 638.249 Q69.3405 638.894 70.971 640.151 Q72.6014 641.408 73.8242 643.853 Q75.047 646.265 75.047 649.186 Q75.047 655.3 70.4275 659.92 Q65.774 664.505 58.9466 664.505 M56.7387 658.663 L56.7387 642.155 Q55.2782 642.155 53.6477 642.427 Q52.0173 642.665 49.7755 643.412 Q47.4997 644.125 46.0731 645.823 Q44.6464 647.522 44.6464 650.035 Q44.6464 651.156 45.122 652.379 Q45.5975 653.568 46.7524 655.029 Q47.9073 656.489 50.5228 657.508 Q53.1382 658.527 56.7387 658.663 Z" fill="#000000" fill-rule="nonzero" fill-opacity="1" /><path clip-path="url(#clip390)" d="M67.6422 609.513 Q61.7319 609.513 58.6069 602.549 Q56.6029 598.371 56.0934 589.744 L53.5458 589.744 Q49.232 589.744 46.9562 592.02 Q44.6464 594.261 44.6464 597.115 Q44.6464 602.21 47.8394 604.655 Q47.9073 602.583 48.9603 601.836 Q49.9793 601.089 51.0323 601.089 Q52.4249 601.089 53.342 601.972 Q54.2252 602.821 54.2252 604.282 Q54.2252 605.674 53.376 606.591 Q52.4929 607.509 50.9643 607.509 Q47.5676 607.509 45.3258 604.452 Q43.084 601.36 43.084 596.979 Q43.084 591.272 46.9222 587.468 Q48.1111 586.279 49.6396 585.702 Q51.1681 585.09 52.1871 585.022 Q53.1722 584.954 55.1423 584.954 L69.0348 584.954 Q69.4424 584.954 70.1218 584.819 Q70.8011 584.683 71.6843 584.071 Q72.5335 583.426 72.5335 582.373 Q72.5335 579.859 68.0838 579.893 L64.1775 579.893 L64.1775 578.127 L68.0838 578.127 Q71.7862 578.127 73.2468 580.097 Q74.6734 582.033 74.6734 583.833 Q74.6734 586.143 72.975 587.604 Q71.2767 589.064 68.9669 589.268 Q71.6163 590.321 73.3487 592.733 Q75.047 595.111 75.047 598.371 Q75.047 600.885 74.4016 603.263 Q73.7902 605.606 72.0579 607.576 Q70.2916 609.513 67.6422 609.513 M67.5743 604.146 Q70.1558 604.146 71.8201 602.312 Q73.4845 600.477 73.4845 597.896 Q73.4845 594.975 71.2427 592.359 Q68.9669 589.744 64.5172 589.744 L57.554 589.744 Q57.8257 597.454 60.9167 600.817 Q63.9737 604.146 67.5743 604.146 Z" fill="#000000" fill-rule="nonzero" fill-opacity="1" /><path clip-path="url(#clip390)" d="M74.2658 575.342 L72.1258 575.342 Q72.1258 571.639 71.6843 570.79 Q71.2087 569.941 68.9669 569.941 L32.7919 569.941 Q30.2104 569.941 29.565 570.858 Q28.9197 571.741 28.9197 575.342 L26.7458 575.342 L25.9985 565.355 L68.9669 565.355 Q71.2087 565.355 71.6843 564.472 Q72.1258 563.589 72.1258 559.921 L74.2658 559.921 Q74.2658 560.77 74.1978 562.536 Q74.1299 564.302 74.0959 565.593 Q74.062 566.884 74.062 567.631 Q74.062 568.446 74.2658 575.342 Z" fill="#000000" fill-rule="nonzero" fill-opacity="1" /><path clip-path="url(#clip390)" d="M46.4467 557.067 L44.9182 557.067 Q44.7823 553.874 42.5405 551.769 Q40.2647 549.629 37.4794 548.915 Q34.6941 548.168 31.4672 548.1 L31.4672 546.368 L44.2728 546.368 L44.2728 536.415 L46.4467 536.415 L46.4467 546.368 L65.774 546.368 Q73.2807 546.368 73.2807 541.68 Q73.2807 539.676 71.2427 538.351 Q69.1707 537.027 65.5023 537.027 L61.664 537.027 L61.664 535.294 L65.6381 535.294 Q69.4085 535.294 72.2277 537.027 Q75.047 538.759 75.047 542.19 Q75.047 543.447 74.7073 544.703 Q74.4016 545.926 73.5864 547.557 Q72.7373 549.153 70.6992 550.172 Q68.6272 551.157 65.6381 551.157 L46.4467 551.157 L46.4467 557.067 Z" fill="#000000" fill-rule="nonzero" fill-opacity="1" /><path clip-path="url(#clip390)" d="M74.2658 529.112 L72.1258 529.112 Q72.1258 525.41 71.6843 524.561 Q71.2087 523.712 68.9669 523.712 L50.251 523.712 Q47.6695 523.712 47.0581 524.595 Q46.4467 525.444 46.4467 528.841 L44.2728 528.841 L43.5255 519.126 L69.0348 519.126 Q71.1068 519.126 71.6163 518.379 Q72.1258 517.632 72.1258 514.235 L74.2658 514.235 Q74.062 521.334 74.062 521.47 Q74.062 522.421 74.2658 529.112 M31.3993 526.191 Q30.0066 526.191 28.8857 525.138 Q27.7308 524.051 27.7308 522.523 Q27.7308 520.994 28.7838 519.907 Q29.8028 518.82 31.4332 518.82 Q33.0297 518.82 34.0827 519.907 Q35.1017 520.994 35.1017 522.523 Q35.1017 524.119 33.9808 525.172 Q32.8599 526.191 31.3993 526.191 Z" fill="#000000" fill-rule="nonzero" fill-opacity="1" /><path clip-path="url(#clip390)" d="M46.4467 510.838 L44.9182 510.838 Q44.7823 507.645 42.5405 505.539 Q40.2647 503.399 37.4794 502.686 Q34.6941 501.939 31.4672 501.871 L31.4672 500.138 L44.2728 500.138 L44.2728 490.186 L46.4467 490.186 L46.4467 500.138 L65.774 500.138 Q73.2807 500.138 73.2807 495.451 Q73.2807 493.447 71.2427 492.122 Q69.1707 490.798 65.5023 490.798 L61.664 490.798 L61.664 489.065 L65.6381 489.065 Q69.4085 489.065 72.2277 490.798 Q75.047 492.53 75.047 495.961 Q75.047 497.217 74.7073 498.474 Q74.4016 499.697 73.5864 501.327 Q72.7373 502.924 70.6992 503.943 Q68.6272 504.928 65.6381 504.928 L46.4467 504.928 L46.4467 510.838 Z" fill="#000000" fill-rule="nonzero" fill-opacity="1" /><path clip-path="url(#clip390)" d="M46.4467 482.951 L44.2728 482.951 L43.5255 472.727 L66.6232 472.727 Q68.2876 472.727 69.2726 472.591 Q70.2237 472.455 71.3446 471.912 Q72.4655 471.334 72.975 470.044 Q73.4845 468.719 73.4845 466.613 Q73.4845 462.843 70.3935 460.533 Q67.3025 458.189 62.717 458.189 L50.319 458.189 Q47.7375 458.189 47.0921 459.106 Q46.4467 460.023 46.4467 463.624 L44.2728 463.624 L43.5255 453.4 L68.2196 453.4 Q70.8011 453.4 71.4805 452.517 Q72.1258 451.599 72.1258 447.965 L74.2658 447.965 L75.047 457.985 L68.7631 457.985 Q75.0131 460.906 75.047 466.953 Q75.047 470.01 74.2658 472.116 Q73.4845 474.188 72.5335 475.241 Q71.5484 476.294 69.6802 476.871 Q67.812 477.414 66.6571 477.482 Q65.5023 477.55 63.2604 477.55 L52.8325 477.55 Q48.1111 477.55 47.2959 478.23 Q46.4467 478.909 46.4467 482.951 Z" fill="#000000" fill-rule="nonzero" fill-opacity="1" /><path clip-path="url(#clip390)" d="M59.3202 444.229 Q52.6967 444.229 48.1111 439.609 Q43.5255 434.99 43.5255 428.74 Q43.5255 423.441 47.8394 419.976 L32.7919 419.976 Q30.2104 419.976 29.565 420.893 Q28.9197 421.776 28.9197 425.377 L26.7458 425.377 L25.9985 415.357 L68.2196 415.357 Q70.8011 415.357 71.4805 414.473 Q72.1258 413.556 72.1258 409.956 L74.2658 409.956 L75.047 420.18 L70.4275 420.18 Q75.0131 423.78 75.047 429.487 Q75.047 435.465 70.4615 439.847 Q65.8759 444.229 59.3202 444.229 M59.3882 438.454 Q65.8419 438.454 69.0348 436.45 Q73.4845 433.665 73.4845 429.147 Q73.4845 423.984 68.6272 420.927 Q67.4384 420.146 66.0457 420.18 L51.7795 420.18 Q50.3869 420.18 49.232 420.927 Q45.0541 423.78 45.0541 428.434 Q45.0541 433.291 49.5037 436.314 Q52.8325 438.454 59.3882 438.454 Z" fill="#000000" fill-rule="nonzero" fill-opacity="1" /><path clip-path="url(#clip390)" d="M58.9466 406.084 Q52.3909 406.084 47.7375 401.872 Q43.084 397.66 43.084 391.614 Q43.084 385.499 47.0581 382.341 Q51.0323 379.148 56.7387 379.148 Q57.7917 379.148 57.9955 379.419 Q58.1993 379.691 58.1993 380.88 L58.1993 400.309 Q65.2985 400.309 68.6272 398.203 Q73.2807 395.282 73.2807 390.357 Q73.2807 389.677 73.1449 388.862 Q73.009 388.047 72.4316 386.383 Q71.8201 384.718 70.2237 383.258 Q68.6272 381.797 66.1137 380.948 Q65.1286 380.744 65.1626 380.065 Q65.1626 379.148 65.9778 379.148 Q66.5892 379.148 67.9819 379.827 Q69.3405 380.472 70.971 381.729 Q72.6014 382.986 73.8242 385.432 Q75.047 387.843 75.047 390.764 Q75.047 396.878 70.4275 401.498 Q65.774 406.084 58.9466 406.084 M56.7387 400.241 L56.7387 383.733 Q55.2782 383.733 53.6477 384.005 Q52.0173 384.243 49.7755 384.99 Q47.4997 385.703 46.0731 387.402 Q44.6464 389.1 44.6464 391.614 Q44.6464 392.734 45.122 393.957 Q45.5975 395.146 46.7524 396.607 Q47.9073 398.067 50.5228 399.086 Q53.1382 400.105 56.7387 400.241 Z" fill="#000000" fill-rule="nonzero" fill-opacity="1" /><path clip-path="url(#clip390)" d="M56.8746 347.117 Q45.122 347.117 35.6452 342.735 Q31.671 340.867 28.3422 338.251 Q25.0135 335.636 23.5529 333.903 Q22.0923 332.171 22.0923 331.696 Q22.0923 331.016 22.7716 330.982 Q23.1113 330.982 23.9605 331.899 Q35.3734 343.108 56.8746 343.075 Q78.4437 343.075 89.4151 332.171 Q90.604 330.982 90.9776 330.982 Q91.6569 330.982 91.6569 331.696 Q91.6569 332.171 90.2643 333.835 Q88.8716 335.5 85.6787 338.081 Q82.4858 340.663 78.5796 342.531 Q69.1028 347.117 56.8746 347.117 Z" fill="#000000" fill-rule="nonzero" fill-opacity="1" /><path clip-path="url(#clip390)" d="M64.8295 298.615 Q65.0871 298.615 66.0855 298.905 Q67.0839 299.195 68.6297 299.904 Q70.1756 300.58 71.5927 301.514 Q72.9775 302.448 74.0081 303.994 Q75.0065 305.507 75.0065 307.247 Q75.0065 309.565 73.4606 311.111 Q71.9147 312.657 69.5959 312.657 Q69.2739 312.657 68.9518 312.625 Q68.6297 312.593 68.4365 312.56 Q68.2111 312.528 67.8568 312.432 Q67.4703 312.303 67.3093 312.271 Q67.1483 312.206 66.6652 312.045 Q66.1499 311.852 65.9567 311.788 Q55.522 307.697 51.1742 307.697 Q46.5687 307.697 46.5687 311.272 Q46.5687 314.461 48.8876 317.617 Q50.047 319.066 52.1081 320.451 Q54.1693 321.836 54.9423 322.093 Q56.617 322.383 57.9052 322.802 Q58.807 322.995 62.3174 323.929 L68.2755 325.378 L73.2674 326.634 Q73.9759 326.892 74.4912 327.601 Q75.0065 328.309 75.0065 329.082 Q75.0065 329.726 74.5556 330.37 Q74.137 330.982 73.1386 330.982 Q72.6233 330.982 71.6893 330.725 L33.6864 321.159 L32.3982 320.966 Q32.0117 320.966 31.8184 321.127 Q31.593 321.256 31.432 322.029 Q31.2709 322.77 31.2709 324.251 Q31.2709 324.863 31.2387 325.153 Q31.2065 325.411 31.0455 325.636 Q30.8523 325.861 30.4658 325.861 Q29.9183 325.861 29.6285 325.636 Q29.3064 325.378 29.242 325.185 Q29.1776 324.992 29.1454 324.605 Q29.1132 324.058 28.9521 322.222 Q28.7589 320.386 28.6301 318.808 Q28.5012 317.23 28.5012 316.554 Q28.5012 316.168 28.6945 315.974 Q28.8555 315.749 29.0487 315.717 L29.2098 315.684 L50.1758 320.837 Q45.1195 316.747 45.1195 311.079 Q45.1195 307.408 47.0196 305.443 Q48.8876 303.478 52.1726 303.478 Q55.9406 303.478 66.6652 307.504 Q69.6603 308.696 71.3672 308.696 Q72.4945 308.696 73.0097 308.342 Q73.525 307.955 73.525 307.118 Q73.525 305.829 72.7843 304.702 Q72.0114 303.543 70.7553 302.738 Q69.4671 301.933 68.1789 301.385 Q66.8584 300.805 65.377 300.387 Q64.5718 300.129 64.3786 300 Q64.1853 299.839 64.1853 299.388 Q64.1853 298.615 64.8295 298.615 Z" fill="#000000" fill-rule="nonzero" fill-opacity="1" /><path clip-path="url(#clip390)" d="M94.0419 291.891 L92.6216 291.891 Q92.6216 289.434 92.3285 288.871 Q92.0129 288.284 90.525 288.284 L78.1483 288.284 Q76.4349 288.284 76.0066 288.893 Q75.5782 289.479 75.5782 291.891 L74.1354 291.891 L73.6395 285.466 L78.7119 285.466 Q76.728 284.813 75.195 283.437 Q73.6395 282.04 73.6395 279.785 Q73.6395 278.297 74.4736 277.35 Q75.3077 276.381 76.4575 276.381 Q77.472 276.381 77.9905 277.012 Q78.4864 277.621 78.4864 278.365 Q78.4864 279.199 77.9679 279.785 Q77.4269 280.349 76.5026 280.349 Q75.939 280.349 75.5106 280.101 Q75.0597 279.83 74.9019 279.627 Q74.7441 279.425 74.699 279.289 Q74.6539 279.379 74.6539 279.785 Q74.6539 282.333 77.2014 283.798 Q79.7264 285.241 83.3334 285.241 L90.4348 285.241 Q91.7649 285.241 92.1933 284.7 Q92.6216 284.136 92.6216 281.724 L92.6216 280.755 L94.0419 280.755 Q93.9066 282.603 93.9066 286.616 Q93.9066 287.18 93.9291 288.059 Q93.9517 288.938 93.9968 290.088 Q94.0419 291.238 94.0419 291.891 Z" fill="#000000" fill-rule="nonzero" fill-opacity="1" /><path clip-path="url(#clip390)" d="M83.8745 273.011 Q79.5235 273.011 76.4349 270.216 Q73.3464 267.42 73.3464 263.408 Q73.3464 259.35 75.984 257.253 Q78.6217 255.134 82.4091 255.134 Q83.108 255.134 83.2432 255.314 Q83.3785 255.495 83.3785 256.284 L83.3785 269.179 Q88.0902 269.179 90.2995 267.781 Q93.3881 265.842 93.3881 262.573 Q93.3881 262.123 93.2979 261.582 Q93.2077 261.04 92.8245 259.936 Q92.4187 258.831 91.3591 257.862 Q90.2995 256.892 88.6313 256.329 Q87.9775 256.193 88 255.743 Q88 255.134 88.5411 255.134 Q88.9469 255.134 89.8712 255.585 Q90.773 256.013 91.8551 256.847 Q92.9372 257.681 93.7488 259.305 Q94.5604 260.905 94.5604 262.844 Q94.5604 266.902 91.4944 269.968 Q88.4058 273.011 83.8745 273.011 M82.4091 269.134 L82.4091 258.177 Q81.4397 258.177 80.3576 258.358 Q79.2755 258.516 77.7876 259.012 Q76.2771 259.485 75.3303 260.612 Q74.3834 261.739 74.3834 263.408 Q74.3834 264.152 74.699 264.963 Q75.0146 265.752 75.7811 266.722 Q76.5476 267.691 78.2835 268.367 Q80.0194 269.044 82.4091 269.134 Z" fill="#000000" fill-rule="nonzero" fill-opacity="1" /><path clip-path="url(#clip390)" d="M94.0419 252.717 L92.6216 252.717 Q92.6216 250.26 92.3285 249.696 Q92.0129 249.132 90.525 249.132 L66.5155 249.132 Q64.8022 249.132 64.3738 249.741 Q63.9455 250.327 63.9455 252.717 L62.5027 252.717 L62.0067 246.089 L90.525 246.089 Q92.0129 246.089 92.3285 245.503 Q92.6216 244.917 92.6216 242.482 L94.0419 242.482 Q94.0419 243.045 93.9968 244.218 Q93.9517 245.39 93.9291 246.247 Q93.9066 247.103 93.9066 247.599 Q93.9066 248.14 94.0419 252.717 Z" fill="#000000" fill-rule="nonzero" fill-opacity="1" /><path clip-path="url(#clip390)" d="M90.9776 233.018 Q90.6379 233.018 89.7887 232.135 Q78.3758 220.926 56.8746 220.926 Q35.3055 220.926 24.402 231.693 Q23.1453 233.018 22.7716 233.018 Q22.0923 233.018 22.0923 232.338 Q22.0923 231.863 23.4849 230.199 Q24.8776 228.5 28.0705 225.953 Q31.2634 223.371 35.1696 221.469 Q44.6464 216.883 56.8746 216.883 Q68.6272 216.883 78.1041 221.265 Q82.0782 223.133 85.407 225.749 Q88.7358 228.364 90.1964 230.097 Q91.6569 231.829 91.6569 232.338 Q91.6569 233.018 90.9776 233.018 Z" fill="#000000" fill-rule="nonzero" fill-opacity="1" /><polyline clip-path="url(#clip392)" style="stroke:#000000; stroke-linecap:round; stroke-linejoin:round; stroke-width:2; stroke-opacity:1; fill:none" points="3250.88,537.212 -1243.49,537.212 "/>
<path clip-path="url(#clip392)" d="M254.635 618.036 L292.088 607.134 L329.541 543.905 L366.994 550.386 L404.447 563.044 L441.9 561.984 L479.353 577.419 L516.806 553.629 L554.259 531.368 L591.712 523.401 L629.165 534.745 L666.618 545.323 L704.071 558.758 L741.524 562.208 L778.977 509.218 L816.43 497.012 L853.883 494.731 L891.336 494.079 L928.789 500.947 L966.242 501.068 L1003.7 446.69 L1041.15 444.603 L1078.6 431.487 L1116.05 417.805 L1153.51 403.959 L1190.96 384.922 L1228.41 398.978 L1265.87 399.005 L1303.32 389.002 L1340.77 389.335 L1378.23 388.598 L1415.68 382.903 L1453.13 338.05 L1490.58 345.985 L1528.04 350.9 L1565.49 324.297 L1602.94 329.8 L1640.4 312.119 L1677.85 309.249 L1715.3 255.529 L1752.76 251.569 L1752.76 176.736 L1715.3 178.573 L1677.85 174.02 L1640.4 203.878 L1602.94 209.885 L1565.49 242.424 L1528.04 249.306 L1490.58 276.217 L1453.13 272.657 L1415.68 296.022 L1378.23 307.917 L1340.77 321.213 L1303.32 310.461 L1265.87 314.786 L1228.41 338.717 L1190.96 368.517 L1153.51 364.994 L1116.05 389.124 L1078.6 389.871 L1041.15 391.088 L1003.7 413.041 L966.242 389.155 L928.789 378.334 L891.336 400.271 L853.883 432.63 L816.43 461.978 L778.977 460.608 L741.524 404.895 L704.071 426.282 L666.618 453.369 L629.165 459.497 L591.712 468.109 L554.259 448.029 L516.806 443.505 L479.353 446.912 L441.9 466.379 L404.447 452.416 L366.994 461.671 L329.541 473.876 L292.088 450.612 L254.635 456.388  Z" fill="#808080" fill-rule="evenodd" fill-opacity="0.5"/>
<polyline clip-path="url(#clip392)" style="stroke:#808080; stroke-linecap:round; stroke-linejoin:round; stroke-width:8; stroke-opacity:1; fill:none" points="254.635,537.212 292.088,528.873 329.541,508.891 366.994,506.029 404.447,507.73 441.9,514.181 479.353,512.165 516.806,498.567 554.259,489.698 591.712,495.755 629.165,497.121 666.618,499.346 704.071,492.52 741.524,483.551 778.977,484.913 816.43,479.495 853.883,463.68 891.336,447.175 928.789,439.641 966.242,445.112 1003.7,429.865 1041.15,417.845 1078.6,410.679 1116.05,403.465 1153.51,384.477 1190.96,376.72 1228.41,368.848 1265.87,356.895 1303.32,349.731 1340.77,355.274 1378.23,348.257 1415.68,339.463 1453.13,305.353 1490.58,311.101 1528.04,300.103 1565.49,283.36 1602.94,269.843 1640.4,257.999 1677.85,241.634 1715.3,217.051 1752.76,214.153 "/>
<polyline clip-path="url(#clip392)" style="stroke:#dc143c; stroke-linecap:round; stroke-linejoin:round; stroke-width:8; stroke-opacity:0.5; fill:none" points="254.635,499.846 292.088,500.498 329.541,502.549 366.994,503.2 404.447,505.252 441.9,507.303 479.353,507.954 516.806,505.806 554.259,502.258 591.712,500.109 629.165,499.361 666.618,497.212 704.071,493.664 741.524,487.316 778.977,480.968 816.43,474.619 853.883,469.671 891.336,460.523 928.789,451.375 966.242,442.227 1003.7,431.679 1041.15,419.732 1078.6,409.184 1116.05,400.036 1153.51,388.088 1190.96,378.94 1228.41,369.792 1265.87,364.844 1303.32,358.495 1340.77,352.147 1378.23,342.999 1415.68,332.451 1453.13,320.504 1490.58,308.556 1528.04,296.608 1565.49,283.26 1602.94,267.113 1640.4,252.365 1677.85,236.218 1715.3,220.07 1752.76,208.122 "/>
<circle clip-path="url(#clip392)" cx="254.635" cy="520.329" r="7.2" fill="#ffffff" fill-rule="evenodd" fill-opacity="1" stroke="#000000" stroke-opacity="1" stroke-width="2.4"/>
<circle clip-path="url(#clip392)" cx="292.088" cy="482.312" r="7.2" fill="#ffffff" fill-rule="evenodd" fill-opacity="1" stroke="#000000" stroke-opacity="1" stroke-width="2.4"/>
<circle clip-path="url(#clip392)" cx="329.541" cy="484.083" r="7.2" fill="#ffffff" fill-rule="evenodd" fill-opacity="1" stroke="#000000" stroke-opacity="1" stroke-width="2.4"/>
<circle clip-path="url(#clip392)" cx="366.994" cy="531.022" r="7.2" fill="#ffffff" fill-rule="evenodd" fill-opacity="1" stroke="#000000" stroke-opacity="1" stroke-width="2.4"/>
<circle clip-path="url(#clip392)" cx="404.447" cy="476.488" r="7.2" fill="#ffffff" fill-rule="evenodd" fill-opacity="1" stroke="#000000" stroke-opacity="1" stroke-width="2.4"/>
<circle clip-path="url(#clip392)" cx="441.9" cy="493.006" r="7.2" fill="#ffffff" fill-rule="evenodd" fill-opacity="1" stroke="#000000" stroke-opacity="1" stroke-width="2.4"/>
<circle clip-path="url(#clip392)" cx="479.353" cy="490.323" r="7.2" fill="#ffffff" fill-rule="evenodd" fill-opacity="1" stroke="#000000" stroke-opacity="1" stroke-width="2.4"/>
<circle clip-path="url(#clip392)" cx="516.806" cy="505.22" r="7.2" fill="#ffffff" fill-rule="evenodd" fill-opacity="1" stroke="#000000" stroke-opacity="1" stroke-width="2.4"/>
<circle clip-path="url(#clip392)" cx="554.259" cy="514.12" r="7.2" fill="#ffffff" fill-rule="evenodd" fill-opacity="1" stroke="#000000" stroke-opacity="1" stroke-width="2.4"/>
<circle clip-path="url(#clip392)" cx="591.712" cy="514.219" r="7.2" fill="#ffffff" fill-rule="evenodd" fill-opacity="1" stroke="#000000" stroke-opacity="1" stroke-width="2.4"/>
<circle clip-path="url(#clip392)" cx="629.165" cy="500.62" r="7.2" fill="#ffffff" fill-rule="evenodd" fill-opacity="1" stroke="#000000" stroke-opacity="1" stroke-width="2.4"/>
<circle clip-path="url(#clip392)" cx="666.618" cy="498.424" r="7.2" fill="#ffffff" fill-rule="evenodd" fill-opacity="1" stroke="#000000" stroke-opacity="1" stroke-width="2.4"/>
<circle clip-path="url(#clip392)" cx="704.071" cy="482.197" r="7.2" fill="#ffffff" fill-rule="evenodd" fill-opacity="1" stroke="#000000" stroke-opacity="1" stroke-width="2.4"/>
<circle clip-path="url(#clip392)" cx="741.524" cy="479.705" r="7.2" fill="#ffffff" fill-rule="evenodd" fill-opacity="1" stroke="#000000" stroke-opacity="1" stroke-width="2.4"/>
<circle clip-path="url(#clip392)" cx="778.977" cy="478.565" r="7.2" fill="#ffffff" fill-rule="evenodd" fill-opacity="1" stroke="#000000" stroke-opacity="1" stroke-width="2.4"/>
<circle clip-path="url(#clip392)" cx="816.43" cy="438.012" r="7.2" fill="#ffffff" fill-rule="evenodd" fill-opacity="1" stroke="#000000" stroke-opacity="1" stroke-width="2.4"/>
<circle clip-path="url(#clip392)" cx="853.883" cy="444.616" r="7.2" fill="#ffffff" fill-rule="evenodd" fill-opacity="1" stroke="#000000" stroke-opacity="1" stroke-width="2.4"/>
<circle clip-path="url(#clip392)" cx="891.336" cy="463.639" r="7.2" fill="#ffffff" fill-rule="evenodd" fill-opacity="1" stroke="#000000" stroke-opacity="1" stroke-width="2.4"/>
<circle clip-path="url(#clip392)" cx="928.789" cy="486.319" r="7.2" fill="#ffffff" fill-rule="evenodd" fill-opacity="1" stroke="#000000" stroke-opacity="1" stroke-width="2.4"/>
<circle clip-path="url(#clip392)" cx="966.242" cy="420.459" r="7.2" fill="#ffffff" fill-rule="evenodd" fill-opacity="1" stroke="#000000" stroke-opacity="1" stroke-width="2.4"/>
<circle clip-path="url(#clip392)" cx="1003.7" cy="418.021" r="7.2" fill="#ffffff" fill-rule="evenodd" fill-opacity="1" stroke="#000000" stroke-opacity="1" stroke-width="2.4"/>
<circle clip-path="url(#clip392)" cx="1041.15" cy="433.252" r="7.2" fill="#ffffff" fill-rule="evenodd" fill-opacity="1" stroke="#000000" stroke-opacity="1" stroke-width="2.4"/>
<circle clip-path="url(#clip392)" cx="1078.6" cy="425.385" r="7.2" fill="#ffffff" fill-rule="evenodd" fill-opacity="1" stroke="#000000" stroke-opacity="1" stroke-width="2.4"/>
<circle clip-path="url(#clip392)" cx="1116.05" cy="362.672" r="7.2" fill="#ffffff" fill-rule="evenodd" fill-opacity="1" stroke="#000000" stroke-opacity="1" stroke-width="2.4"/>
<circle clip-path="url(#clip392)" cx="1153.51" cy="388.19" r="7.2" fill="#ffffff" fill-rule="evenodd" fill-opacity="1" stroke="#000000" stroke-opacity="1" stroke-width="2.4"/>
<circle clip-path="url(#clip392)" cx="1190.96" cy="439.118" r="7.2" fill="#ffffff" fill-rule="evenodd" fill-opacity="1" stroke="#000000" stroke-opacity="1" stroke-width="2.4"/>
<circle clip-path="url(#clip392)" cx="1228.41" cy="344.581" r="7.2" fill="#ffffff" fill-rule="evenodd" fill-opacity="1" stroke="#000000" stroke-opacity="1" stroke-width="2.4"/>
<circle clip-path="url(#clip392)" cx="1265.87" cy="336.197" r="7.2" fill="#ffffff" fill-rule="evenodd" fill-opacity="1" stroke="#000000" stroke-opacity="1" stroke-width="2.4"/>
<circle clip-path="url(#clip392)" cx="1303.32" cy="367.815" r="7.2" fill="#ffffff" fill-rule="evenodd" fill-opacity="1" stroke="#000000" stroke-opacity="1" stroke-width="2.4"/>
<circle clip-path="url(#clip392)" cx="1340.77" cy="353.08" r="7.2" fill="#ffffff" fill-rule="evenodd" fill-opacity="1" stroke="#000000" stroke-opacity="1" stroke-width="2.4"/>
<circle clip-path="url(#clip392)" cx="1378.23" cy="330.757" r="7.2" fill="#ffffff" fill-rule="evenodd" fill-opacity="1" stroke="#000000" stroke-opacity="1" stroke-width="2.4"/>
<circle clip-path="url(#clip392)" cx="1415.68" cy="259.854" r="7.2" fill="#ffffff" fill-rule="evenodd" fill-opacity="1" stroke="#000000" stroke-opacity="1" stroke-width="2.4"/>
<circle clip-path="url(#clip392)" cx="1453.13" cy="323.296" r="7.2" fill="#ffffff" fill-rule="evenodd" fill-opacity="1" stroke="#000000" stroke-opacity="1" stroke-width="2.4"/>
<circle clip-path="url(#clip392)" cx="1490.58" cy="280.757" r="7.2" fill="#ffffff" fill-rule="evenodd" fill-opacity="1" stroke="#000000" stroke-opacity="1" stroke-width="2.4"/>
<circle clip-path="url(#clip392)" cx="1528.04" cy="289.714" r="7.2" fill="#ffffff" fill-rule="evenodd" fill-opacity="1" stroke="#000000" stroke-opacity="1" stroke-width="2.4"/>
<circle clip-path="url(#clip392)" cx="1565.49" cy="278.389" r="7.2" fill="#ffffff" fill-rule="evenodd" fill-opacity="1" stroke="#000000" stroke-opacity="1" stroke-width="2.4"/>
<circle clip-path="url(#clip392)" cx="1602.94" cy="278.855" r="7.2" fill="#ffffff" fill-rule="evenodd" fill-opacity="1" stroke="#000000" stroke-opacity="1" stroke-width="2.4"/>
<circle clip-path="url(#clip392)" cx="1640.4" cy="227.367" r="7.2" fill="#ffffff" fill-rule="evenodd" fill-opacity="1" stroke="#000000" stroke-opacity="1" stroke-width="2.4"/>
<circle clip-path="url(#clip392)" cx="1677.85" cy="211.377" r="7.2" fill="#ffffff" fill-rule="evenodd" fill-opacity="1" stroke="#000000" stroke-opacity="1" stroke-width="2.4"/>
<circle clip-path="url(#clip392)" cx="1715.3" cy="205.928" r="7.2" fill="#ffffff" fill-rule="evenodd" fill-opacity="1" stroke="#000000" stroke-opacity="1" stroke-width="2.4"/>
<circle clip-path="url(#clip392)" cx="1752.76" cy="183.666" r="7.2" fill="#ffffff" fill-rule="evenodd" fill-opacity="1" stroke="#000000" stroke-opacity="1" stroke-width="2.4"/>
</svg>
